<svg width="114" height="593" viewBox="0 0 114 593" fill="none" xmlns="http://www.w3.org/2000/svg">
<path d="M-19.1967 593L-280.684 331.592C-318.928 293.359 -340 242.529 -340 188.445C-340 134.362 -318.928 83.531 -280.684 45.2982C-242.439 7.06545 -191.593 -14 -137.493 -14C-83.3935 -14 -32.5474 7.06545 5.69696 45.2982C75.5491 115.103 114 207.936 114 306.68C114 405.425 75.5233 498.257 5.69696 568.062L-19.1967 592.948V593ZM-137.493 4.1483C-186.738 4.1483 -233.04 23.3292 -267.875 58.1285C-302.711 92.9536 -321.872 139.241 -321.872 188.471C-321.872 237.701 -302.685 283.988 -267.875 318.814L-19.1967 567.417L-7.11139 555.335C59.3062 488.938 95.8978 400.649 95.8978 306.732C95.8978 212.815 59.3062 124.526 -7.11139 58.1285C-41.9471 23.3034 -88.2483 4.1483 -137.493 4.1483Z" fill="#D5B3C2"/>
</svg>
