<svg width="137" height="274" viewBox="0 0 137 274" fill="none" xmlns="http://www.w3.org/2000/svg">
<path d="M222.169 364.502L207.72 378.933L204.966 384.434L200.063 379.538L42.2655 221.918C42.2654 221.918 42.2653 221.918 42.2653 221.918C18.246 197.928 5 166.006 5 132.067C5 98.1284 18.246 66.207 42.2655 42.2171C66.2847 18.2274 98.2424 5 132.218 5C166.193 5 198.151 18.2274 222.17 42.2171C265.25 85.2442 289 142.491 289 203.359C289 264.226 265.266 321.473 222.17 364.501C222.17 364.501 222.169 364.502 222.169 364.502ZM268.075 203.359C268.075 148.059 246.519 96.0959 207.373 56.9976C187.286 36.9509 160.613 25.9116 132.218 25.9116C103.821 25.9116 77.1488 36.9364 57.0636 56.9962C36.9916 77.0584 25.9407 103.697 25.9407 132.052C25.9407 160.409 36.9771 187.046 57.0623 207.106L203.613 353.476L207.373 349.721C246.519 310.622 268.075 258.659 268.075 203.359Z" fill="#C0638C" stroke="#C0638C" stroke-width="10"/>
</svg>
