<svg width="17" height="17" viewBox="0 0 17 17" fill="none" xmlns="http://www.w3.org/2000/svg">
<path d="M13.8257 2.27411H12.3257V1.77411C12.3257 1.6415 12.273 1.51432 12.1792 1.42056C12.0855 1.32679 11.9583 1.27411 11.8257 1.27411C11.6931 1.27411 11.5659 1.32679 11.4721 1.42056C11.3784 1.51432 11.3257 1.6415 11.3257 1.77411V2.27411H6.32568V1.77411C6.32568 1.6415 6.27301 1.51432 6.17924 1.42056C6.08547 1.32679 5.95829 1.27411 5.82568 1.27411C5.69308 1.27411 5.5659 1.32679 5.47213 1.42056C5.37836 1.51432 5.32568 1.6415 5.32568 1.77411V2.27411H3.82568C3.56047 2.27411 3.30611 2.37947 3.11858 2.567C2.93104 2.75454 2.82568 3.00889 2.82568 3.27411V13.2741C2.82568 13.5393 2.93104 13.7937 3.11858 13.9812C3.30611 14.1688 3.56047 14.2741 3.82568 14.2741H13.8257C14.0909 14.2741 14.3453 14.1688 14.5328 13.9812C14.7203 13.7937 14.8257 13.5393 14.8257 13.2741V3.27411C14.8257 3.00889 14.7203 2.75454 14.5328 2.567C14.3453 2.37947 14.0909 2.27411 13.8257 2.27411ZM5.32568 3.27411V3.77411C5.32568 3.90672 5.37836 4.03389 5.47213 4.12766C5.5659 4.22143 5.69308 4.27411 5.82568 4.27411C5.95829 4.27411 6.08547 4.22143 6.17924 4.12766C6.27301 4.03389 6.32568 3.90672 6.32568 3.77411V3.27411H11.3257V3.77411C11.3257 3.90672 11.3784 4.03389 11.4721 4.12766C11.5659 4.22143 11.6931 4.27411 11.8257 4.27411C11.9583 4.27411 12.0855 4.22143 12.1792 4.12766C12.273 4.03389 12.3257 3.90672 12.3257 3.77411V3.27411H13.8257V5.27411H3.82568V3.27411H5.32568ZM13.8257 13.2741H3.82568V6.27411H13.8257V13.2741ZM9.57568 8.52411C9.57568 8.67244 9.5317 8.81745 9.44929 8.94079C9.36687 9.06412 9.24974 9.16025 9.1127 9.21702C8.97565 9.27378 8.82485 9.28864 8.67937 9.2597C8.53388 9.23076 8.40024 9.15933 8.29535 9.05444C8.19046 8.94955 8.11903 8.81591 8.09009 8.67043C8.06116 8.52494 8.07601 8.37414 8.13277 8.2371C8.18954 8.10005 8.28567 7.98292 8.40901 7.90051C8.53234 7.8181 8.67735 7.77411 8.82568 7.77411C9.0246 7.77411 9.21536 7.85313 9.35601 7.99378C9.49667 8.13443 9.57568 8.3252 9.57568 8.52411ZM12.3257 8.52411C12.3257 8.67244 12.2817 8.81745 12.1993 8.94079C12.1169 9.06412 11.9997 9.16025 11.8627 9.21702C11.7257 9.27378 11.5749 9.28864 11.4294 9.2597C11.2839 9.23076 11.1502 9.15933 11.0454 9.05444C10.9405 8.94955 10.869 8.81591 10.8401 8.67043C10.8112 8.52494 10.826 8.37414 10.8828 8.2371C10.9395 8.10005 11.0357 7.98292 11.159 7.90051C11.2823 7.8181 11.4273 7.77411 11.5757 7.77411C11.7746 7.77411 11.9654 7.85313 12.106 7.99378C12.2467 8.13443 12.3257 8.3252 12.3257 8.52411ZM6.82568 11.0241C6.82568 11.1724 6.7817 11.3174 6.69929 11.4408C6.61687 11.5641 6.49974 11.6603 6.3627 11.717C6.22565 11.7738 6.07485 11.7886 5.92937 11.7597C5.78388 11.7308 5.65024 11.6593 5.54535 11.5544C5.44046 11.4495 5.36903 11.3159 5.34009 11.1704C5.31116 11.0249 5.32601 10.8741 5.38277 10.7371C5.43954 10.6001 5.53567 10.4829 5.65901 10.4005C5.78234 10.3181 5.92735 10.2741 6.07568 10.2741C6.2746 10.2741 6.46536 10.3531 6.60601 10.4938C6.74667 10.6344 6.82568 10.8252 6.82568 11.0241ZM9.57568 11.0241C9.57568 11.1724 9.5317 11.3174 9.44929 11.4408C9.36687 11.5641 9.24974 11.6603 9.1127 11.717C8.97565 11.7738 8.82485 11.7886 8.67937 11.7597C8.53388 11.7308 8.40024 11.6593 8.29535 11.5544C8.19046 11.4495 8.11903 11.3159 8.09009 11.1704C8.06116 11.0249 8.07601 10.8741 8.13277 10.7371C8.18954 10.6001 8.28567 10.4829 8.40901 10.4005C8.53234 10.3181 8.67735 10.2741 8.82568 10.2741C9.0246 10.2741 9.21536 10.3531 9.35601 10.4938C9.49667 10.6344 9.57568 10.8252 9.57568 11.0241ZM12.3257 11.0241C12.3257 11.1724 12.2817 11.3174 12.1993 11.4408C12.1169 11.5641 11.9997 11.6603 11.8627 11.717C11.7257 11.7738 11.5749 11.7886 11.4294 11.7597C11.2839 11.7308 11.1502 11.6593 11.0454 11.5544C10.9405 11.4495 10.869 11.3159 10.8401 11.1704C10.8112 11.0249 10.826 10.8741 10.8828 10.7371C10.9395 10.6001 11.0357 10.4829 11.159 10.4005C11.2823 10.3181 11.4273 10.2741 11.5757 10.2741C11.7746 10.2741 11.9654 10.3531 12.106 10.4938C12.2467 10.6344 12.3257 10.8252 12.3257 11.0241Z" fill="#818181"/>
</svg>
