<svg width="15" height="15" viewBox="0 0 15 15" fill="none" xmlns="http://www.w3.org/2000/svg">
<path d="M13.5837 11.0668C13.5837 11.2768 13.5371 11.4927 13.4379 11.7027C13.3387 11.9127 13.2104 12.111 13.0412 12.2977C12.7554 12.6127 12.4404 12.8402 12.0846 12.986C11.7346 13.1318 11.3554 13.2077 10.9471 13.2077C10.3521 13.2077 9.71624 13.0677 9.0454 12.7818C8.37457 12.496 7.70374 12.111 7.03874 11.6268C6.3679 11.1368 5.73207 10.5943 5.1254 9.99352C4.52457 9.38685 3.98207 8.75102 3.4979 8.08602C3.01957 7.42102 2.63457 6.75602 2.35457 6.09685C2.07457 5.43185 1.93457 4.79602 1.93457 4.18935C1.93457 3.79268 2.00457 3.41352 2.14457 3.06352C2.28457 2.70768 2.50624 2.38102 2.8154 2.08935C3.18874 1.72185 3.59707 1.54102 4.02874 1.54102C4.19207 1.54102 4.3554 1.57602 4.50124 1.64602C4.6529 1.71602 4.78707 1.82102 4.89207 1.97268L6.2454 3.88018C6.3504 4.02602 6.42624 4.16018 6.47874 4.28852C6.53124 4.41102 6.5604 4.53352 6.5604 4.64435C6.5604 4.78435 6.51957 4.92435 6.4379 5.05852C6.36207 5.19268 6.25124 5.33268 6.11124 5.47268L5.6679 5.93352C5.60374 5.99768 5.57457 6.07352 5.57457 6.16685C5.57457 6.21352 5.5804 6.25435 5.59207 6.30102C5.60957 6.34768 5.62707 6.38268 5.63874 6.41768C5.74374 6.61018 5.92457 6.86102 6.18124 7.16435C6.44374 7.46768 6.72374 7.77685 7.02707 8.08602C7.34207 8.39518 7.6454 8.68102 7.95457 8.94352C8.2579 9.20018 8.50874 9.37518 8.70707 9.48018C8.73624 9.49185 8.77124 9.50935 8.81207 9.52685C8.85874 9.54435 8.9054 9.55018 8.9579 9.55018C9.05707 9.55018 9.1329 9.51518 9.19707 9.45102L9.6404 9.01352C9.78624 8.86768 9.92624 8.75685 10.0604 8.68685C10.1946 8.60518 10.3287 8.56435 10.4746 8.56435C10.5854 8.56435 10.7021 8.58768 10.8304 8.64018C10.9587 8.69268 11.0929 8.76852 11.2387 8.86768L13.1696 10.2385C13.3212 10.3435 13.4262 10.466 13.4904 10.6118C13.5487 10.7577 13.5837 10.9035 13.5837 11.0668Z" stroke="#818181" stroke-miterlimit="10"/>
</svg>
