<svg width="358" height="156" viewBox="0 0 358 156" fill="none" xmlns="http://www.w3.org/2000/svg">
<rect width="358" height="156" rx="8" fill="#C0638C"/>
<path d="M22.9723 41H20.4411L25.0497 27.9091H27.9773L32.5923 41H30.0611L26.5646 30.5938H26.4624L22.9723 41ZM23.0554 35.8672H29.9588V37.772H23.0554V35.8672ZM37.5589 41.1726C36.7876 41.1726 36.0973 40.9744 35.4879 40.5781C34.8786 40.1818 34.397 39.6065 34.0433 38.8523C33.6896 38.098 33.5128 37.1818 33.5128 36.1037C33.5128 35.0128 33.6918 34.0923 34.0497 33.3423C34.4119 32.5881 34.8999 32.0192 35.5135 31.6357C36.1271 31.2479 36.8111 31.054 37.5653 31.054C38.1406 31.054 38.6136 31.152 38.9844 31.348C39.3551 31.5398 39.6491 31.772 39.8665 32.0447C40.0838 32.3132 40.2521 32.5668 40.3714 32.8054H40.4673V27.9091H42.7876V41H40.5121V39.4531H40.3714C40.2521 39.6918 40.0795 39.9453 39.8537 40.2138C39.6278 40.478 39.3295 40.7038 38.9588 40.8913C38.5881 41.0788 38.1214 41.1726 37.5589 41.1726ZM38.2045 39.2741C38.6946 39.2741 39.1122 39.142 39.4574 38.8778C39.8026 38.6094 40.0646 38.2365 40.2436 37.7592C40.4226 37.282 40.5121 36.7259 40.5121 36.0909C40.5121 35.456 40.4226 34.9041 40.2436 34.4354C40.0689 33.9666 39.8089 33.6023 39.4638 33.3423C39.1229 33.0824 38.7031 32.9524 38.2045 32.9524C37.6889 32.9524 37.2585 33.0866 36.9134 33.3551C36.5682 33.6236 36.3082 33.9943 36.1335 34.4673C35.9588 34.9403 35.8714 35.4815 35.8714 36.0909C35.8714 36.7045 35.9588 37.2521 36.1335 37.7337C36.3125 38.2109 36.5746 38.5881 36.9197 38.8651C37.2692 39.1378 37.6974 39.2741 38.2045 39.2741ZM53.0133 33.777L50.9039 34.0071C50.8443 33.794 50.7399 33.5938 50.5907 33.4062C50.4458 33.2188 50.2498 33.0675 50.0027 32.9524C49.7555 32.8374 49.4529 32.7798 49.095 32.7798C48.6135 32.7798 48.2086 32.8842 47.8805 33.093C47.5566 33.3018 47.3968 33.5724 47.4011 33.9048C47.3968 34.1903 47.5012 34.4226 47.7143 34.6016C47.9316 34.7805 48.2896 34.9276 48.7882 35.0426L50.4629 35.4006C51.3919 35.6009 52.0822 35.9183 52.5339 36.353C52.9899 36.7876 53.22 37.3565 53.2243 38.0597C53.22 38.6776 53.0389 39.223 52.6809 39.696C52.3272 40.1648 51.835 40.5312 51.2044 40.7955C50.5737 41.0597 49.8493 41.1918 49.0311 41.1918C47.8294 41.1918 46.862 40.9403 46.1291 40.4375C45.3961 39.9304 44.9593 39.2251 44.8187 38.3217L47.0751 38.1044C47.1774 38.5476 47.3947 38.8821 47.7271 39.108C48.0595 39.3338 48.492 39.4467 49.0247 39.4467C49.5744 39.4467 50.0154 39.3338 50.3478 39.108C50.6845 38.8821 50.8528 38.603 50.8528 38.2706C50.8528 37.9893 50.7441 37.7571 50.5268 37.5739C50.3137 37.3906 49.9814 37.25 49.5297 37.152L47.8549 36.8004C46.9132 36.6044 46.2164 36.2741 45.7647 35.8097C45.313 35.3409 45.0893 34.7486 45.0936 34.0327C45.0893 33.4276 45.2534 32.9034 45.5858 32.4602C45.9224 32.0128 46.389 31.6676 46.9856 31.4247C47.5865 31.1776 48.2789 31.054 49.063 31.054C50.2136 31.054 51.1191 31.299 51.7797 31.7891C52.4444 32.2791 52.8556 32.9418 53.0133 33.777ZM61.911 27.9091V41H59.5971V27.9091H61.911ZM68.5732 41.1918C67.6143 41.1918 66.7834 40.9808 66.0803 40.5589C65.3771 40.1371 64.8317 39.5469 64.4439 38.7884C64.0604 38.0298 63.8686 37.1435 63.8686 36.1293C63.8686 35.1151 64.0604 34.2266 64.4439 33.4638C64.8317 32.701 65.3771 32.1087 66.0803 31.6868C66.7834 31.2649 67.6143 31.054 68.5732 31.054C69.532 31.054 70.3629 31.2649 71.0661 31.6868C71.7692 32.1087 72.3125 32.701 72.696 33.4638C73.0838 34.2266 73.2777 35.1151 73.2777 36.1293C73.2777 37.1435 73.0838 38.0298 72.696 38.7884C72.3125 39.5469 71.7692 40.1371 71.0661 40.5589C70.3629 40.9808 69.532 41.1918 68.5732 41.1918ZM68.5859 39.3381C69.1058 39.3381 69.5405 39.1953 69.8899 38.9098C70.2393 38.62 70.4993 38.2322 70.6697 37.7464C70.8445 37.2607 70.9318 36.7195 70.9318 36.1229C70.9318 35.522 70.8445 34.9787 70.6697 34.4929C70.4993 34.0028 70.2393 33.6129 69.8899 33.3232C69.5405 33.0334 69.1058 32.8885 68.5859 32.8885C68.0533 32.8885 67.6101 33.0334 67.2564 33.3232C66.907 33.6129 66.6449 34.0028 66.4702 34.4929C66.2997 34.9787 66.2145 35.522 66.2145 36.1229C66.2145 36.7195 66.2997 37.2607 66.4702 37.7464C66.6449 38.2322 66.907 38.62 67.2564 38.9098C67.6101 39.1953 68.0533 39.3381 68.5859 39.3381ZM75.2417 41V31.1818H77.4853V32.8182H77.5875C77.7665 32.2514 78.0733 31.8146 78.508 31.5078C78.9469 31.1967 79.4476 31.0412 80.0101 31.0412C80.138 31.0412 80.2807 31.0476 80.4384 31.0604C80.6003 31.0689 80.7346 31.0838 80.8411 31.1051V33.2337C80.7431 33.1996 80.5875 33.1697 80.3745 33.1442C80.1657 33.1143 79.9632 33.0994 79.7672 33.0994C79.3453 33.0994 78.9661 33.1911 78.6294 33.3743C78.2971 33.5533 78.035 33.8026 77.8432 34.1222C77.6515 34.4418 77.5556 34.8104 77.5556 35.228V41H75.2417ZM86.3207 41.1918C85.3363 41.1918 84.4862 40.9872 83.7702 40.5781C83.0586 40.1648 82.511 39.581 82.1275 38.8267C81.744 38.0682 81.5522 37.1754 81.5522 36.1484C81.5522 35.1385 81.744 34.2521 82.1275 33.4893C82.5153 32.7223 83.0565 32.1257 83.7511 31.6996C84.4457 31.2692 85.2617 31.054 86.1992 31.054C86.8043 31.054 87.3754 31.152 87.9123 31.348C88.4535 31.5398 88.9308 31.8381 89.3441 32.2429C89.7617 32.6477 90.0898 33.1634 90.3285 33.7898C90.5671 34.4119 90.6864 35.1534 90.6864 36.0142V36.7237H82.6388V35.1641H88.4684C88.4641 34.7209 88.3683 34.3267 88.1808 33.9815C87.9933 33.6321 87.7312 33.3572 87.3945 33.157C87.0621 32.9567 86.6744 32.8565 86.2312 32.8565C85.7582 32.8565 85.3427 32.9716 84.9847 33.2017C84.6268 33.4276 84.3477 33.7259 84.1474 34.0966C83.9513 34.4631 83.8512 34.8658 83.8469 35.3047V36.6662C83.8469 37.2372 83.9513 37.7273 84.1602 38.1364C84.369 38.5412 84.6609 38.8523 85.0359 39.0696C85.4109 39.2827 85.8498 39.3892 86.3526 39.3892C86.6893 39.3892 86.994 39.3423 87.2667 39.2486C87.5394 39.1506 87.7759 39.0078 87.9762 38.8203C88.1765 38.6328 88.3278 38.4006 88.43 38.1236L90.5906 38.3665C90.4542 38.9375 90.1942 39.4361 89.8107 39.8622C89.4315 40.2841 88.9457 40.6122 88.3533 40.8466C87.761 41.0767 87.0835 41.1918 86.3207 41.1918ZM92.644 41V31.1818H94.8556V32.8501H94.9707C95.1752 32.2876 95.514 31.8487 95.987 31.5334C96.46 31.2138 97.0247 31.054 97.6809 31.054C98.3457 31.054 98.9061 31.2159 99.362 31.5398C99.8223 31.8594 100.146 32.2962 100.334 32.8501H100.436C100.653 32.3047 101.02 31.87 101.535 31.5462C102.055 31.218 102.671 31.054 103.383 31.054C104.286 31.054 105.023 31.3395 105.594 31.9105C106.165 32.4815 106.451 33.3146 106.451 34.4098V41H104.131V34.7678C104.131 34.1584 103.969 33.7131 103.645 33.4318C103.321 33.1463 102.925 33.0036 102.456 33.0036C101.898 33.0036 101.461 33.1783 101.145 33.5277C100.834 33.8729 100.679 34.3224 100.679 34.8764V41H98.4096V34.6719C98.4096 34.1648 98.2562 33.7599 97.9494 33.4574C97.6468 33.1548 97.2505 33.0036 96.7605 33.0036C96.4281 33.0036 96.1255 33.0888 95.8528 33.2592C95.5801 33.4254 95.3627 33.6619 95.2008 33.9688C95.0389 34.2713 94.9579 34.625 94.9579 35.0298V41H92.644ZM113.263 41V31.1818H115.577V41H113.263ZM114.426 29.7884C114.06 29.7884 113.745 29.6669 113.48 29.424C113.216 29.1768 113.084 28.8807 113.084 28.5355C113.084 28.1861 113.216 27.8899 113.48 27.647C113.745 27.3999 114.06 27.2763 114.426 27.2763C114.797 27.2763 115.113 27.3999 115.373 27.647C115.637 27.8899 115.769 28.1861 115.769 28.5355C115.769 28.8807 115.637 29.1768 115.373 29.424C115.113 29.6669 114.797 29.7884 114.426 29.7884ZM117.956 44.6818V31.1818H120.232V32.8054H120.366C120.486 32.5668 120.654 32.3132 120.871 32.0447C121.089 31.772 121.383 31.5398 121.753 31.348C122.124 31.152 122.597 31.054 123.172 31.054C123.931 31.054 124.615 31.2479 125.224 31.6357C125.838 32.0192 126.324 32.5881 126.682 33.3423C127.044 34.0923 127.225 35.0128 127.225 36.1037C127.225 37.1818 127.048 38.098 126.694 38.8523C126.341 39.6065 125.859 40.1818 125.25 40.5781C124.64 40.9744 123.95 41.1726 123.179 41.1726C122.616 41.1726 122.15 41.0788 121.779 40.8913C121.408 40.7038 121.11 40.478 120.884 40.2138C120.662 39.9453 120.49 39.6918 120.366 39.4531H120.27V44.6818H117.956ZM120.226 36.0909C120.226 36.7259 120.315 37.282 120.494 37.7592C120.677 38.2365 120.939 38.6094 121.28 38.8778C121.626 39.142 122.043 39.2741 122.533 39.2741C123.045 39.2741 123.473 39.1378 123.818 38.8651C124.163 38.5881 124.423 38.2109 124.598 37.7337C124.777 37.2521 124.866 36.7045 124.866 36.0909C124.866 35.4815 124.779 34.9403 124.604 34.4673C124.43 33.9943 124.17 33.6236 123.824 33.3551C123.479 33.0866 123.049 32.9524 122.533 32.9524C122.039 32.9524 121.619 33.0824 121.274 33.3423C120.929 33.6023 120.667 33.9666 120.488 34.4354C120.313 34.9041 120.226 35.456 120.226 36.0909ZM135.464 36.8707V31.1818H137.778V41H135.535V39.255H135.432C135.211 39.8047 134.846 40.2543 134.339 40.6037C133.836 40.9531 133.216 41.1278 132.479 41.1278C131.836 41.1278 131.267 40.9851 130.773 40.6996C130.282 40.4098 129.899 39.9901 129.622 39.4403C129.345 38.8864 129.206 38.2173 129.206 37.4332V31.1818H131.52V37.0753C131.52 37.6974 131.691 38.1918 132.032 38.5582C132.373 38.9247 132.82 39.108 133.374 39.108C133.715 39.108 134.045 39.0249 134.365 38.8587C134.684 38.6925 134.947 38.4453 135.151 38.1172C135.36 37.7848 135.464 37.3693 135.464 36.8707ZM144.504 41.1918C143.52 41.1918 142.67 40.9872 141.954 40.5781C141.242 40.1648 140.695 39.581 140.311 38.8267C139.928 38.0682 139.736 37.1754 139.736 36.1484C139.736 35.1385 139.928 34.2521 140.311 33.4893C140.699 32.7223 141.24 32.1257 141.935 31.6996C142.629 31.2692 143.445 31.054 144.383 31.054C144.988 31.054 145.559 31.152 146.096 31.348C146.637 31.5398 147.114 31.8381 147.528 32.2429C147.945 32.6477 148.273 33.1634 148.512 33.7898C148.751 34.4119 148.87 35.1534 148.87 36.0142V36.7237H140.822V35.1641H146.652C146.648 34.7209 146.552 34.3267 146.364 33.9815C146.177 33.6321 145.915 33.3572 145.578 33.157C145.246 32.9567 144.858 32.8565 144.415 32.8565C143.942 32.8565 143.526 32.9716 143.168 33.2017C142.81 33.4276 142.531 33.7259 142.331 34.0966C142.135 34.4631 142.035 34.8658 142.031 35.3047V36.6662C142.031 37.2372 142.135 37.7273 142.344 38.1364C142.553 38.5412 142.844 38.8523 143.219 39.0696C143.594 39.2827 144.033 39.3892 144.536 39.3892C144.873 39.3892 145.178 39.3423 145.45 39.2486C145.723 39.1506 145.96 39.0078 146.16 38.8203C146.36 38.6328 146.511 38.4006 146.614 38.1236L148.774 38.3665C148.638 38.9375 148.378 39.4361 147.994 39.8622C147.615 40.2841 147.129 40.6122 146.537 40.8466C145.945 41.0767 145.267 41.1918 144.504 41.1918ZM150.828 41V31.1818H153.039V32.8501H153.154C153.359 32.2876 153.698 31.8487 154.171 31.5334C154.644 31.2138 155.208 31.054 155.865 31.054C156.529 31.054 157.09 31.2159 157.546 31.5398C158.006 31.8594 158.33 32.2962 158.517 32.8501H158.619C158.837 32.3047 159.203 31.87 159.719 31.5462C160.239 31.218 160.855 31.054 161.566 31.054C162.47 31.054 163.207 31.3395 163.778 31.9105C164.349 32.4815 164.634 33.3146 164.634 34.4098V41H162.314V34.7678C162.314 34.1584 162.152 33.7131 161.828 33.4318C161.504 33.1463 161.108 33.0036 160.639 33.0036C160.081 33.0036 159.644 33.1783 159.329 33.5277C159.018 33.8729 158.862 34.3224 158.862 34.8764V41H156.593V34.6719C156.593 34.1648 156.44 33.7599 156.133 33.4574C155.83 33.1548 155.434 33.0036 154.944 33.0036C154.612 33.0036 154.309 33.0888 154.036 33.2592C153.764 33.4254 153.546 33.6619 153.384 33.9688C153.222 34.2713 153.142 34.625 153.142 35.0298V41H150.828Z" fill="white"/>
<path d="M29.3636 62C29.2386 61.6174 29.0739 61.2746 28.8693 60.9716C28.6686 60.6648 28.428 60.4034 28.1477 60.1875C27.8712 59.9716 27.5568 59.8068 27.2045 59.6932C26.8523 59.5795 26.4659 59.5227 26.0455 59.5227C25.3561 59.5227 24.7292 59.7008 24.1648 60.0568C23.6004 60.4129 23.1515 60.9375 22.8182 61.6307C22.4848 62.3239 22.3182 63.1742 22.3182 64.1818C22.3182 65.1894 22.4867 66.0398 22.8239 66.733C23.161 67.4261 23.6174 67.9508 24.1932 68.3068C24.7689 68.6629 25.4167 68.8409 26.1364 68.8409C26.803 68.8409 27.3902 68.6989 27.8977 68.4148C28.4091 68.1269 28.8068 67.7216 29.0909 67.1989C29.3788 66.6723 29.5227 66.053 29.5227 65.3409L29.9545 65.4318H26.4545V64.1818H30.8864V65.4318C30.8864 66.3902 30.6818 67.2235 30.2727 67.9318C29.8674 68.6402 29.3068 69.1894 28.5909 69.5795C27.8788 69.9659 27.0606 70.1591 26.1364 70.1591C25.1061 70.1591 24.2008 69.9167 23.4205 69.4318C22.6439 68.947 22.0379 68.2576 21.6023 67.3636C21.1705 66.4697 20.9545 65.4091 20.9545 64.1818C20.9545 63.2614 21.0777 62.4337 21.3239 61.6989C21.5739 60.9602 21.9261 60.3314 22.3807 59.8125C22.8352 59.2936 23.3731 58.8958 23.9943 58.6193C24.6155 58.3428 25.2992 58.2045 26.0455 58.2045C26.6591 58.2045 27.2311 58.2973 27.7614 58.483C28.2955 58.6648 28.7708 58.9242 29.1875 59.2614C29.608 59.5947 29.9583 59.9943 30.2386 60.4602C30.5189 60.9223 30.7121 61.4356 30.8182 62H29.3636ZM36.777 70.1818C35.9361 70.1818 35.2107 69.9962 34.6009 69.625C33.9948 69.25 33.527 68.7273 33.1974 68.0568C32.8717 67.3826 32.7088 66.5985 32.7088 65.7045C32.7088 64.8106 32.8717 64.0227 33.1974 63.3409C33.527 62.6553 33.9853 62.1212 34.5724 61.7386C35.1634 61.3523 35.8527 61.1591 36.6406 61.1591C37.0952 61.1591 37.544 61.2348 37.9872 61.3864C38.4304 61.5379 38.8338 61.7841 39.1974 62.125C39.5611 62.4621 39.8509 62.9091 40.0668 63.4659C40.2827 64.0227 40.3906 64.7083 40.3906 65.5227V66.0909H33.6634V64.9318H39.027C39.027 64.4394 38.9285 64 38.7315 63.6136C38.5384 63.2273 38.2618 62.9223 37.902 62.6989C37.5459 62.4754 37.1255 62.3636 36.6406 62.3636C36.1065 62.3636 35.6444 62.4962 35.2543 62.7614C34.8679 63.0227 34.5705 63.3636 34.3622 63.7841C34.1539 64.2045 34.0497 64.6553 34.0497 65.1364V65.9091C34.0497 66.5682 34.1634 67.1269 34.3906 67.5852C34.6217 68.0398 34.9418 68.3864 35.3509 68.625C35.7599 68.8598 36.2353 68.9773 36.777 68.9773C37.1293 68.9773 37.4474 68.928 37.7315 68.8295C38.0194 68.7273 38.2675 68.5758 38.4759 68.375C38.6842 68.1705 38.8452 67.9167 38.9588 67.6136L40.2543 67.9773C40.1179 68.4167 39.8887 68.803 39.5668 69.1364C39.2448 69.4659 38.8471 69.7235 38.3736 69.9091C37.9001 70.0909 37.3679 70.1818 36.777 70.1818ZM46.2259 61.2727V62.4091H41.7031V61.2727H46.2259ZM43.0213 59.1818H44.3622V67.5C44.3622 67.8788 44.4171 68.1629 44.527 68.3523C44.6406 68.5379 44.7846 68.6629 44.9588 68.7273C45.1368 68.7879 45.3243 68.8182 45.5213 68.8182C45.669 68.8182 45.7902 68.8106 45.8849 68.7955C45.9796 68.7765 46.0554 68.7614 46.1122 68.75L46.3849 69.9545C46.294 69.9886 46.1671 70.0227 46.0043 70.0568C45.8414 70.0947 45.6349 70.1136 45.3849 70.1136C45.0062 70.1136 44.6349 70.0322 44.2713 69.8693C43.9115 69.7064 43.6122 69.4583 43.3736 69.125C43.1387 68.7917 43.0213 68.3712 43.0213 67.8636V59.1818ZM53.6065 73.2727C53.3793 73.2727 53.1766 73.2538 52.9986 73.2159C52.8205 73.1818 52.6974 73.1477 52.6293 73.1136L52.9702 71.9318C53.2959 72.0152 53.5838 72.0455 53.8338 72.0227C54.0838 72 54.3054 71.8883 54.4986 71.6875C54.6955 71.4905 54.8755 71.1705 55.0384 70.7273L55.2884 70.0455L52.0611 61.2727H53.5156L55.9247 68.2273H56.0156L58.4247 61.2727H59.8793L56.1747 71.2727C56.008 71.7235 55.8016 72.0966 55.5554 72.392C55.3092 72.6913 55.0232 72.9129 54.6974 73.0568C54.3755 73.2008 54.0118 73.2727 53.6065 73.2727ZM64.8821 70.1818C64.0942 70.1818 63.4029 69.9943 62.8082 69.6193C62.2173 69.2443 61.7552 68.7197 61.4219 68.0455C61.0923 67.3712 60.9276 66.5833 60.9276 65.6818C60.9276 64.7727 61.0923 63.9792 61.4219 63.3011C61.7552 62.6231 62.2173 62.0966 62.8082 61.7216C63.4029 61.3466 64.0942 61.1591 64.8821 61.1591C65.67 61.1591 66.3594 61.3466 66.9503 61.7216C67.545 62.0966 68.0071 62.6231 68.3366 63.3011C68.67 63.9792 68.8366 64.7727 68.8366 65.6818C68.8366 66.5833 68.67 67.3712 68.3366 68.0455C68.0071 68.7197 67.545 69.2443 66.9503 69.6193C66.3594 69.9943 65.67 70.1818 64.8821 70.1818ZM64.8821 68.9773C65.4806 68.9773 65.973 68.8239 66.3594 68.517C66.7457 68.2102 67.0317 67.8068 67.2173 67.3068C67.4029 66.8068 67.4957 66.2652 67.4957 65.6818C67.4957 65.0985 67.4029 64.5549 67.2173 64.0511C67.0317 63.5473 66.7457 63.1402 66.3594 62.8295C65.973 62.5189 65.4806 62.3636 64.8821 62.3636C64.2836 62.3636 63.7912 62.5189 63.4048 62.8295C63.0185 63.1402 62.7325 63.5473 62.5469 64.0511C62.3613 64.5549 62.2685 65.0985 62.2685 65.6818C62.2685 66.2652 62.3613 66.8068 62.5469 67.3068C62.7325 67.8068 63.0185 68.2102 63.4048 68.517C63.7912 68.8239 64.2836 68.9773 64.8821 68.9773ZM76.3835 66.4318V61.2727H77.7244V70H76.3835V68.5227H76.2926C76.0881 68.9659 75.7699 69.3428 75.3381 69.6534C74.9063 69.9602 74.3608 70.1136 73.7017 70.1136C73.1562 70.1136 72.6714 69.9943 72.2472 69.7557C71.8229 69.5133 71.4896 69.1496 71.2472 68.6648C71.0047 68.1761 70.8835 67.5606 70.8835 66.8182V61.2727H72.2244V66.7273C72.2244 67.3636 72.4025 67.8712 72.7585 68.25C73.1184 68.6288 73.5767 68.8182 74.1335 68.8182C74.4669 68.8182 74.8059 68.733 75.1506 68.5625C75.4991 68.392 75.7907 68.1307 76.0256 67.7784C76.2642 67.4261 76.3835 66.9773 76.3835 66.4318ZM80.1804 70V61.2727H81.4759V62.5909H81.5668C81.7259 62.1591 82.0137 61.8087 82.4304 61.5398C82.8471 61.2708 83.3168 61.1364 83.8395 61.1364C83.938 61.1364 84.0611 61.1383 84.2088 61.142C84.3565 61.1458 84.4683 61.1515 84.544 61.1591V62.5227C84.4986 62.5114 84.3944 62.4943 84.2315 62.4716C84.0724 62.4451 83.9039 62.4318 83.7259 62.4318C83.3016 62.4318 82.9228 62.5208 82.5895 62.6989C82.2599 62.8731 81.9986 63.1155 81.8054 63.4261C81.616 63.733 81.5213 64.0833 81.5213 64.4773V70H80.1804ZM91.8835 66.8182L91.8608 65.1591H92.1335L95.9517 61.2727H97.6108L93.5426 65.3864H93.429L91.8835 66.8182ZM90.6335 70V58.3636H91.9744V70H90.6335ZM96.179 70L92.7699 65.6818L93.7244 64.75L97.8835 70H96.179ZM102.636 70.1818C101.795 70.1818 101.07 69.9962 100.46 69.625C99.8542 69.25 99.3864 68.7273 99.0568 68.0568C98.7311 67.3826 98.5682 66.5985 98.5682 65.7045C98.5682 64.8106 98.7311 64.0227 99.0568 63.3409C99.3864 62.6553 99.8447 62.1212 100.432 61.7386C101.023 61.3523 101.712 61.1591 102.5 61.1591C102.955 61.1591 103.403 61.2348 103.847 61.3864C104.29 61.5379 104.693 61.7841 105.057 62.125C105.42 62.4621 105.71 62.9091 105.926 63.4659C106.142 64.0227 106.25 64.7083 106.25 65.5227V66.0909H99.5227V64.9318H104.886C104.886 64.4394 104.788 64 104.591 63.6136C104.398 63.2273 104.121 62.9223 103.761 62.6989C103.405 62.4754 102.985 62.3636 102.5 62.3636C101.966 62.3636 101.504 62.4962 101.114 62.7614C100.727 63.0227 100.43 63.3636 100.222 63.7841C100.013 64.2045 99.9091 64.6553 99.9091 65.1364V65.9091C99.9091 66.5682 100.023 67.1269 100.25 67.5852C100.481 68.0398 100.801 68.3864 101.21 68.625C101.619 68.8598 102.095 68.9773 102.636 68.9773C102.989 68.9773 103.307 68.928 103.591 68.8295C103.879 68.7273 104.127 68.5758 104.335 68.375C104.544 68.1705 104.705 67.9167 104.818 67.6136L106.114 67.9773C105.977 68.4167 105.748 68.803 105.426 69.1364C105.104 69.4659 104.706 69.7235 104.233 69.9091C103.759 70.0909 103.227 70.1818 102.636 70.1818ZM108.888 73.2727C108.661 73.2727 108.458 73.2538 108.28 73.2159C108.102 73.1818 107.979 73.1477 107.911 73.1136L108.251 71.9318C108.577 72.0152 108.865 72.0455 109.115 72.0227C109.365 72 109.587 71.8883 109.78 71.6875C109.977 71.4905 110.157 71.1705 110.32 70.7273L110.57 70.0455L107.342 61.2727H108.797L111.206 68.2273H111.297L113.706 61.2727H115.161L111.456 71.2727C111.289 71.7235 111.083 72.0966 110.837 72.392C110.59 72.6913 110.304 72.9129 109.979 73.0568C109.657 73.2008 109.293 73.2727 108.888 73.2727ZM123.112 63.2273L121.908 63.5682C121.832 63.3674 121.72 63.1723 121.572 62.983C121.429 62.7898 121.232 62.6307 120.982 62.5057C120.732 62.3807 120.411 62.3182 120.021 62.3182C119.487 62.3182 119.042 62.4413 118.686 62.6875C118.334 62.9299 118.158 63.2386 118.158 63.6136C118.158 63.947 118.279 64.2102 118.521 64.4034C118.764 64.5966 119.143 64.7576 119.658 64.8864L120.953 65.2045C121.733 65.3939 122.315 65.6837 122.697 66.0739C123.08 66.4602 123.271 66.9583 123.271 67.5682C123.271 68.0682 123.127 68.5152 122.839 68.9091C122.555 69.303 122.158 69.6136 121.646 69.8409C121.135 70.0682 120.54 70.1818 119.862 70.1818C118.972 70.1818 118.235 69.9886 117.652 69.6023C117.069 69.2159 116.699 68.6515 116.544 67.9091L117.817 67.5909C117.938 68.0606 118.167 68.4129 118.504 68.6477C118.845 68.8826 119.29 69 119.839 69C120.464 69 120.961 68.8674 121.328 68.6023C121.699 68.3333 121.885 68.0114 121.885 67.6364C121.885 67.3333 121.779 67.0795 121.567 66.875C121.355 66.6667 121.029 66.5114 120.589 66.4091L119.135 66.0682C118.336 65.8788 117.749 65.5852 117.374 65.1875C117.002 64.786 116.817 64.2841 116.817 63.6818C116.817 63.1894 116.955 62.7538 117.232 62.375C117.512 61.9962 117.893 61.6989 118.374 61.483C118.858 61.267 119.408 61.1591 120.021 61.1591C120.885 61.1591 121.563 61.3485 122.055 61.7273C122.552 62.1061 122.904 62.6061 123.112 63.2273ZM133.335 70.1818C132.547 70.1818 131.856 69.9943 131.261 69.6193C130.67 69.2443 130.208 68.7197 129.875 68.0455C129.545 67.3712 129.381 66.5833 129.381 65.6818C129.381 64.7727 129.545 63.9792 129.875 63.3011C130.208 62.6231 130.67 62.0966 131.261 61.7216C131.856 61.3466 132.547 61.1591 133.335 61.1591C134.123 61.1591 134.813 61.3466 135.403 61.7216C135.998 62.0966 136.46 62.6231 136.79 63.3011C137.123 63.9792 137.29 64.7727 137.29 65.6818C137.29 66.5833 137.123 67.3712 136.79 68.0455C136.46 68.7197 135.998 69.2443 135.403 69.6193C134.813 69.9943 134.123 70.1818 133.335 70.1818ZM133.335 68.9773C133.934 68.9773 134.426 68.8239 134.812 68.517C135.199 68.2102 135.485 67.8068 135.67 67.3068C135.856 66.8068 135.949 66.2652 135.949 65.6818C135.949 65.0985 135.856 64.5549 135.67 64.0511C135.485 63.5473 135.199 63.1402 134.812 62.8295C134.426 62.5189 133.934 62.3636 133.335 62.3636C132.737 62.3636 132.244 62.5189 131.858 62.8295C131.472 63.1402 131.186 63.5473 131 64.0511C130.814 64.5549 130.722 65.0985 130.722 65.6818C130.722 66.2652 130.814 66.8068 131 67.3068C131.186 67.8068 131.472 68.2102 131.858 68.517C132.244 68.8239 132.737 68.9773 133.335 68.9773ZM139.337 70V61.2727H140.632V62.5909H140.723C140.882 62.1591 141.17 61.8087 141.587 61.5398C142.003 61.2708 142.473 61.1364 142.996 61.1364C143.094 61.1364 143.217 61.1383 143.365 61.142C143.513 61.1458 143.625 61.1515 143.7 61.1591V62.5227C143.655 62.5114 143.551 62.4943 143.388 62.4716C143.229 62.4451 143.06 62.4318 142.882 62.4318C142.458 62.4318 142.079 62.5208 141.746 62.6989C141.416 62.8731 141.155 63.1155 140.962 63.4261C140.772 63.733 140.678 64.0833 140.678 64.4773V70H139.337ZM153.312 73.4545C152.665 73.4545 152.108 73.3712 151.642 73.2045C151.176 73.0417 150.788 72.8258 150.477 72.5568C150.17 72.2917 149.926 72.0076 149.744 71.7045L150.812 70.9545C150.934 71.1136 151.087 71.2955 151.273 71.5C151.458 71.7083 151.712 71.8883 152.034 72.0398C152.36 72.1951 152.786 72.2727 153.312 72.2727C154.017 72.2727 154.598 72.1023 155.057 71.7614C155.515 71.4205 155.744 70.8864 155.744 70.1591V68.3864H155.631C155.532 68.5455 155.392 68.7424 155.21 68.9773C155.032 69.2083 154.775 69.4148 154.438 69.5966C154.104 69.7746 153.653 69.8636 153.085 69.8636C152.381 69.8636 151.748 69.697 151.188 69.3636C150.631 69.0303 150.189 68.5455 149.864 67.9091C149.542 67.2727 149.381 66.5 149.381 65.5909C149.381 64.697 149.538 63.9186 149.852 63.2557C150.167 62.589 150.604 62.0739 151.165 61.7102C151.725 61.3428 152.373 61.1591 153.108 61.1591C153.676 61.1591 154.127 61.2538 154.46 61.4432C154.797 61.6288 155.055 61.8409 155.233 62.0795C155.415 62.3144 155.555 62.5076 155.653 62.6591H155.79V61.2727H157.085V70.25C157.085 71 156.915 71.6098 156.574 72.0795C156.237 72.553 155.782 72.8996 155.21 73.1193C154.642 73.3428 154.009 73.4545 153.312 73.4545ZM153.267 68.6591C153.805 68.6591 154.259 68.536 154.631 68.2898C155.002 68.0436 155.284 67.6894 155.477 67.2273C155.67 66.7652 155.767 66.2121 155.767 65.5682C155.767 64.9394 155.672 64.3845 155.483 63.9034C155.294 63.4223 155.013 63.0455 154.642 62.7727C154.271 62.5 153.813 62.3636 153.267 62.3636C152.699 62.3636 152.225 62.5076 151.847 62.7955C151.472 63.0833 151.189 63.4697 151 63.9545C150.814 64.4394 150.722 64.9773 150.722 65.5682C150.722 66.1742 150.816 66.7102 151.006 67.1761C151.199 67.6383 151.483 68.0019 151.858 68.267C152.237 68.5284 152.706 68.6591 153.267 68.6591ZM160.881 58.3636V70H159.54V58.3636H160.881ZM165.905 70.2045C165.352 70.2045 164.85 70.1004 164.399 69.892C163.948 69.6799 163.59 69.375 163.325 68.9773C163.06 68.5758 162.928 68.0909 162.928 67.5227C162.928 67.0227 163.026 66.6174 163.223 66.3068C163.42 65.9924 163.683 65.7462 164.013 65.5682C164.342 65.3902 164.706 65.2576 165.104 65.1705C165.505 65.0795 165.909 65.0076 166.314 64.9545C166.844 64.8864 167.274 64.8352 167.604 64.8011C167.937 64.7633 168.179 64.7008 168.331 64.6136C168.486 64.5265 168.564 64.375 168.564 64.1591V64.1136C168.564 63.553 168.411 63.1174 168.104 62.8068C167.801 62.4962 167.34 62.3409 166.723 62.3409C166.083 62.3409 165.581 62.4811 165.217 62.7614C164.854 63.0417 164.598 63.3409 164.45 63.6591L163.178 63.2045C163.405 62.6742 163.708 62.2614 164.087 61.9659C164.469 61.6667 164.886 61.4583 165.337 61.3409C165.791 61.2197 166.238 61.1591 166.678 61.1591C166.958 61.1591 167.28 61.1932 167.643 61.2614C168.011 61.3258 168.365 61.4602 168.706 61.6648C169.051 61.8693 169.337 62.178 169.564 62.5909C169.791 63.0038 169.905 63.5568 169.905 64.25V70H168.564V68.8182H168.496C168.405 69.0076 168.253 69.2102 168.041 69.4261C167.829 69.642 167.547 69.8258 167.195 69.9773C166.842 70.1288 166.412 70.2045 165.905 70.2045ZM166.109 69C166.64 69 167.087 68.8958 167.45 68.6875C167.818 68.4792 168.094 68.2102 168.28 67.8807C168.469 67.5511 168.564 67.2045 168.564 66.8409V65.6136C168.507 65.6818 168.382 65.7443 168.189 65.8011C168 65.8542 167.78 65.9015 167.53 65.9432C167.284 65.9811 167.043 66.0152 166.808 66.0455C166.577 66.072 166.39 66.0947 166.246 66.1136C165.897 66.1591 165.571 66.233 165.268 66.3352C164.969 66.4337 164.727 66.5833 164.541 66.7841C164.359 66.9811 164.268 67.25 164.268 67.5909C164.268 68.0568 164.441 68.4091 164.786 68.6477C165.134 68.8826 165.575 69 166.109 69ZM178.534 63.2273L177.33 63.5682C177.254 63.3674 177.142 63.1723 176.994 62.983C176.85 62.7898 176.653 62.6307 176.403 62.5057C176.153 62.3807 175.833 62.3182 175.443 62.3182C174.909 62.3182 174.464 62.4413 174.108 62.6875C173.756 62.9299 173.58 63.2386 173.58 63.6136C173.58 63.947 173.701 64.2102 173.943 64.4034C174.186 64.5966 174.564 64.7576 175.08 64.8864L176.375 65.2045C177.155 65.3939 177.737 65.6837 178.119 66.0739C178.502 66.4602 178.693 66.9583 178.693 67.5682C178.693 68.0682 178.549 68.5152 178.261 68.9091C177.977 69.303 177.58 69.6136 177.068 69.8409C176.557 70.0682 175.962 70.1818 175.284 70.1818C174.394 70.1818 173.657 69.9886 173.074 69.6023C172.491 69.2159 172.121 68.6515 171.966 67.9091L173.239 67.5909C173.36 68.0606 173.589 68.4129 173.926 68.6477C174.267 68.8826 174.712 69 175.261 69C175.886 69 176.383 68.8674 176.75 68.6023C177.121 68.3333 177.307 68.0114 177.307 67.6364C177.307 67.3333 177.201 67.0795 176.989 66.875C176.777 66.6667 176.451 66.5114 176.011 66.4091L174.557 66.0682C173.758 65.8788 173.17 65.5852 172.795 65.1875C172.424 64.786 172.239 64.2841 172.239 63.6818C172.239 63.1894 172.377 62.7538 172.653 62.375C172.934 61.9962 173.314 61.6989 173.795 61.483C174.28 61.267 174.83 61.1591 175.443 61.1591C176.307 61.1591 176.985 61.3485 177.477 61.7273C177.973 62.1061 178.326 62.6061 178.534 63.2273ZM186.893 63.2273L185.689 63.5682C185.613 63.3674 185.501 63.1723 185.354 62.983C185.21 62.7898 185.013 62.6307 184.763 62.5057C184.513 62.3807 184.193 62.3182 183.803 62.3182C183.268 62.3182 182.823 62.4413 182.467 62.6875C182.115 62.9299 181.939 63.2386 181.939 63.6136C181.939 63.947 182.06 64.2102 182.303 64.4034C182.545 64.5966 182.924 64.7576 183.439 64.8864L184.734 65.2045C185.515 65.3939 186.096 65.6837 186.479 66.0739C186.861 66.4602 187.053 66.9583 187.053 67.5682C187.053 68.0682 186.909 68.5152 186.621 68.9091C186.337 69.303 185.939 69.6136 185.428 69.8409C184.916 70.0682 184.321 70.1818 183.643 70.1818C182.753 70.1818 182.017 69.9886 181.433 69.6023C180.85 69.2159 180.481 68.6515 180.325 67.9091L181.598 67.5909C181.719 68.0606 181.948 68.4129 182.286 68.6477C182.626 68.8826 183.071 69 183.621 69C184.246 69 184.742 68.8674 185.109 68.6023C185.481 68.3333 185.666 68.0114 185.666 67.6364C185.666 67.3333 185.56 67.0795 185.348 66.875C185.136 66.6667 184.81 66.5114 184.371 66.4091L182.916 66.0682C182.117 65.8788 181.53 65.5852 181.155 65.1875C180.784 64.786 180.598 64.2841 180.598 63.6818C180.598 63.1894 180.736 62.7538 181.013 62.375C181.293 61.9962 181.674 61.6989 182.155 61.483C182.64 61.267 183.189 61.1591 183.803 61.1591C184.666 61.1591 185.344 61.3485 185.837 61.7273C186.333 62.1061 186.685 62.6061 186.893 63.2273ZM192.73 70.1818C191.889 70.1818 191.164 69.9962 190.554 69.625C189.948 69.25 189.48 68.7273 189.151 68.0568C188.825 67.3826 188.662 66.5985 188.662 65.7045C188.662 64.8106 188.825 64.0227 189.151 63.3409C189.48 62.6553 189.938 62.1212 190.526 61.7386C191.116 61.3523 191.806 61.1591 192.594 61.1591C193.048 61.1591 193.497 61.2348 193.94 61.3864C194.384 61.5379 194.787 61.7841 195.151 62.125C195.514 62.4621 195.804 62.9091 196.02 63.4659C196.236 64.0227 196.344 64.7083 196.344 65.5227V66.0909H189.616V64.9318H194.98C194.98 64.4394 194.882 64 194.685 63.6136C194.491 63.2273 194.215 62.9223 193.855 62.6989C193.499 62.4754 193.079 62.3636 192.594 62.3636C192.06 62.3636 191.598 62.4962 191.207 62.7614C190.821 63.0227 190.524 63.3636 190.315 63.7841C190.107 64.2045 190.003 64.6553 190.003 65.1364V65.9091C190.003 66.5682 190.116 67.1269 190.344 67.5852C190.575 68.0398 190.895 68.3864 191.304 68.625C191.713 68.8598 192.188 68.9773 192.73 68.9773C193.082 68.9773 193.401 68.928 193.685 68.8295C193.973 68.7273 194.221 68.5758 194.429 68.375C194.637 68.1705 194.798 67.9167 194.912 67.6136L196.207 67.9773C196.071 68.4167 195.842 68.803 195.52 69.1364C195.198 69.4659 194.8 69.7235 194.327 69.9091C193.853 70.0909 193.321 70.1818 192.73 70.1818ZM204.565 63.2273L203.361 63.5682C203.285 63.3674 203.173 63.1723 203.026 62.983C202.882 62.7898 202.685 62.6307 202.435 62.5057C202.185 62.3807 201.865 62.3182 201.474 62.3182C200.94 62.3182 200.495 62.4413 200.139 62.6875C199.787 62.9299 199.611 63.2386 199.611 63.6136C199.611 63.947 199.732 64.2102 199.974 64.4034C200.217 64.5966 200.596 64.7576 201.111 64.8864L202.406 65.2045C203.187 65.3939 203.768 65.6837 204.151 66.0739C204.533 66.4602 204.724 66.9583 204.724 67.5682C204.724 68.0682 204.58 68.5152 204.293 68.9091C204.009 69.303 203.611 69.6136 203.099 69.8409C202.588 70.0682 201.993 70.1818 201.315 70.1818C200.425 70.1818 199.688 69.9886 199.105 69.6023C198.522 69.2159 198.152 68.6515 197.997 67.9091L199.27 67.5909C199.391 68.0606 199.62 68.4129 199.957 68.6477C200.298 68.8826 200.743 69 201.293 69C201.918 69 202.414 68.8674 202.781 68.6023C203.152 68.3333 203.338 68.0114 203.338 67.6364C203.338 67.3333 203.232 67.0795 203.02 66.875C202.808 66.6667 202.482 66.5114 202.043 66.4091L200.588 66.0682C199.789 65.8788 199.202 65.5852 198.827 65.1875C198.455 64.786 198.27 64.2841 198.27 63.6818C198.27 63.1894 198.408 62.7538 198.685 62.375C198.965 61.9962 199.346 61.6989 199.827 61.483C200.312 61.267 200.861 61.1591 201.474 61.1591C202.338 61.1591 203.016 61.3485 203.509 61.7273C204.005 62.1061 204.357 62.6061 204.565 63.2273ZM211.425 70V58.3636H212.766V62.6591H212.879C212.978 62.5076 213.114 62.3144 213.288 62.0795C213.466 61.8409 213.72 61.6288 214.05 61.4432C214.383 61.2538 214.834 61.1591 215.402 61.1591C216.137 61.1591 216.785 61.3428 217.345 61.7102C217.906 62.0777 218.343 62.5985 218.658 63.2727C218.972 63.947 219.129 64.7424 219.129 65.6591C219.129 66.5833 218.972 67.3845 218.658 68.0625C218.343 68.7367 217.908 69.2595 217.351 69.6307C216.794 69.9981 216.152 70.1818 215.425 70.1818C214.864 70.1818 214.415 70.089 214.078 69.9034C213.741 69.714 213.482 69.5 213.3 69.2614C213.118 69.0189 212.978 68.8182 212.879 68.6591H212.72V70H211.425ZM212.743 65.6364C212.743 66.2955 212.839 66.8769 213.033 67.3807C213.226 67.8807 213.508 68.2727 213.879 68.5568C214.25 68.8371 214.705 68.9773 215.243 68.9773C215.804 68.9773 216.271 68.8295 216.646 68.5341C217.025 68.2348 217.309 67.8333 217.499 67.3295C217.692 66.822 217.788 66.2576 217.788 65.6364C217.788 65.0227 217.694 64.4697 217.504 63.9773C217.319 63.4811 217.036 63.089 216.658 62.8011C216.283 62.5095 215.811 62.3636 215.243 62.3636C214.697 62.3636 214.239 62.5019 213.868 62.7784C213.497 63.0511 213.216 63.4337 213.027 63.9261C212.838 64.4148 212.743 64.9848 212.743 65.6364ZM223.749 70.2045C223.196 70.2045 222.694 70.1004 222.243 69.892C221.792 69.6799 221.434 69.375 221.169 68.9773C220.904 68.5758 220.771 68.0909 220.771 67.5227C220.771 67.0227 220.87 66.6174 221.067 66.3068C221.264 65.9924 221.527 65.7462 221.857 65.5682C222.186 65.3902 222.55 65.2576 222.947 65.1705C223.349 65.0795 223.752 65.0076 224.158 64.9545C224.688 64.8864 225.118 64.8352 225.447 64.8011C225.781 64.7633 226.023 64.7008 226.175 64.6136C226.33 64.5265 226.408 64.375 226.408 64.1591V64.1136C226.408 63.553 226.254 63.1174 225.947 62.8068C225.644 62.4962 225.184 62.3409 224.567 62.3409C223.927 62.3409 223.425 62.4811 223.061 62.7614C222.697 63.0417 222.442 63.3409 222.294 63.6591L221.021 63.2045C221.249 62.6742 221.552 62.2614 221.93 61.9659C222.313 61.6667 222.73 61.4583 223.18 61.3409C223.635 61.2197 224.082 61.1591 224.521 61.1591C224.802 61.1591 225.124 61.1932 225.487 61.2614C225.855 61.3258 226.209 61.4602 226.55 61.6648C226.894 61.8693 227.18 62.178 227.408 62.5909C227.635 63.0038 227.749 63.5568 227.749 64.25V70H226.408V68.8182H226.339C226.249 69.0076 226.097 69.2102 225.885 69.4261C225.673 69.642 225.391 69.8258 225.038 69.9773C224.686 70.1288 224.256 70.2045 223.749 70.2045ZM223.953 69C224.483 69 224.93 68.8958 225.294 68.6875C225.661 68.4792 225.938 68.2102 226.124 67.8807C226.313 67.5511 226.408 67.2045 226.408 66.8409V65.6136C226.351 65.6818 226.226 65.7443 226.033 65.8011C225.843 65.8542 225.624 65.9015 225.374 65.9432C225.127 65.9811 224.887 66.0152 224.652 66.0455C224.421 66.072 224.233 66.0947 224.089 66.1136C223.741 66.1591 223.415 66.233 223.112 66.3352C222.813 66.4337 222.571 66.5833 222.385 66.7841C222.203 66.9811 222.112 67.25 222.112 67.5909C222.112 68.0568 222.285 68.4091 222.629 68.6477C222.978 68.8826 223.419 69 223.953 69ZM233.741 70.1818C232.923 70.1818 232.219 69.9886 231.628 69.6023C231.037 69.2159 230.582 68.6837 230.264 68.0057C229.946 67.3277 229.787 66.553 229.787 65.6818C229.787 64.7955 229.95 64.0133 230.276 63.3352C230.605 62.6534 231.063 62.1212 231.651 61.7386C232.241 61.3523 232.931 61.1591 233.719 61.1591C234.332 61.1591 234.885 61.2727 235.378 61.5C235.87 61.7273 236.274 62.0455 236.588 62.4545C236.902 62.8636 237.098 63.3409 237.173 63.8864H235.832C235.73 63.4886 235.503 63.1364 235.151 62.8295C234.802 62.5189 234.332 62.3636 233.741 62.3636C233.219 62.3636 232.76 62.5 232.366 62.7727C231.976 63.0417 231.671 63.4223 231.452 63.9148C231.236 64.4034 231.128 64.9773 231.128 65.6364C231.128 66.3106 231.234 66.8977 231.446 67.3977C231.662 67.8977 231.965 68.286 232.355 68.5625C232.749 68.839 233.211 68.9773 233.741 68.9773C234.09 68.9773 234.406 68.9167 234.69 68.7955C234.974 68.6742 235.215 68.5 235.412 68.2727C235.609 68.0455 235.749 67.7727 235.832 67.4545H237.173C237.098 67.9697 236.91 68.4337 236.611 68.8466C236.315 69.2557 235.923 69.5814 235.435 69.8239C234.95 70.0625 234.385 70.1818 233.741 70.1818ZM240.384 66.8182L240.361 65.1591H240.634L244.452 61.2727H246.111L242.043 65.3864H241.929L240.384 66.8182ZM239.134 70V58.3636H240.474V70H239.134ZM244.679 70L241.27 65.6818L242.224 64.75L246.384 70H244.679ZM23.2045 90L20.5455 81.2727H21.9545L23.8409 87.9545H23.9318L25.7955 81.2727H27.2273L29.0682 87.9318H29.1591L31.0455 81.2727H32.4545L29.7955 90H28.4773L26.5682 83.2955H26.4318L24.5227 90H23.2045ZM34.2273 90V81.2727H35.5682V90H34.2273ZM34.9091 79.8182C34.6477 79.8182 34.4223 79.7292 34.233 79.5511C34.0473 79.3731 33.9545 79.1591 33.9545 78.9091C33.9545 78.6591 34.0473 78.4451 34.233 78.267C34.4223 78.089 34.6477 78 34.9091 78C35.1705 78 35.3939 78.089 35.5795 78.267C35.7689 78.4451 35.8636 78.6591 35.8636 78.9091C35.8636 79.1591 35.7689 79.3731 35.5795 79.5511C35.3939 79.7292 35.1705 79.8182 34.9091 79.8182ZM41.8196 81.2727V82.4091H37.2969V81.2727H41.8196ZM38.6151 79.1818H39.956V87.5C39.956 87.8788 40.0109 88.1629 40.1207 88.3523C40.2344 88.5379 40.3783 88.6629 40.5526 88.7273C40.7306 88.7879 40.9181 88.8182 41.1151 88.8182C41.2628 88.8182 41.384 88.8106 41.4787 88.7955C41.5734 88.7765 41.6491 88.7614 41.706 88.75L41.9787 89.9545C41.8878 89.9886 41.7609 90.0227 41.598 90.0568C41.4351 90.0947 41.2287 90.1136 40.9787 90.1136C40.5999 90.1136 40.2287 90.0322 39.8651 89.8693C39.5052 89.7064 39.206 89.4583 38.9673 89.125C38.7325 88.7917 38.6151 88.3712 38.6151 87.8636V79.1818ZM45.3651 84.75V90H44.0241V78.3636H45.3651V82.6364H45.4787C45.6832 82.1856 45.9901 81.8277 46.3991 81.5625C46.812 81.2936 47.3613 81.1591 48.0469 81.1591C48.6416 81.1591 49.1624 81.2784 49.6094 81.517C50.0563 81.7519 50.4029 82.1136 50.6491 82.6023C50.8991 83.0871 51.0241 83.7045 51.0241 84.4545V90H49.6832V84.5455C49.6832 83.8523 49.5033 83.3163 49.1435 82.9375C48.7874 82.5549 48.2931 82.3636 47.6605 82.3636C47.2211 82.3636 46.8272 82.4564 46.4787 82.642C46.134 82.8277 45.8613 83.0985 45.6605 83.4545C45.4635 83.8106 45.3651 84.2424 45.3651 84.75ZM57.0227 90.1818C56.2348 90.1818 55.5436 89.9943 54.9489 89.6193C54.358 89.2443 53.8958 88.7197 53.5625 88.0455C53.233 87.3712 53.0682 86.5833 53.0682 85.6818C53.0682 84.7727 53.233 83.9792 53.5625 83.3011C53.8958 82.6231 54.358 82.0966 54.9489 81.7216C55.5436 81.3466 56.2348 81.1591 57.0227 81.1591C57.8106 81.1591 58.5 81.3466 59.0909 81.7216C59.6856 82.0966 60.1477 82.6231 60.4773 83.3011C60.8106 83.9792 60.9773 84.7727 60.9773 85.6818C60.9773 86.5833 60.8106 87.3712 60.4773 88.0455C60.1477 88.7197 59.6856 89.2443 59.0909 89.6193C58.5 89.9943 57.8106 90.1818 57.0227 90.1818ZM57.0227 88.9773C57.6212 88.9773 58.1136 88.8239 58.5 88.517C58.8864 88.2102 59.1723 87.8068 59.358 87.3068C59.5436 86.8068 59.6364 86.2652 59.6364 85.6818C59.6364 85.0985 59.5436 84.5549 59.358 84.0511C59.1723 83.5473 58.8864 83.1402 58.5 82.8295C58.1136 82.5189 57.6212 82.3636 57.0227 82.3636C56.4242 82.3636 55.9318 82.5189 55.5455 82.8295C55.1591 83.1402 54.8731 83.5473 54.6875 84.0511C54.5019 84.5549 54.4091 85.0985 54.4091 85.6818C54.4091 86.2652 54.5019 86.8068 54.6875 87.3068C54.8731 87.8068 55.1591 88.2102 55.5455 88.517C55.9318 88.8239 56.4242 88.9773 57.0227 88.9773ZM68.5241 86.4318V81.2727H69.8651V90H68.5241V88.5227H68.4332C68.2287 88.9659 67.9105 89.3428 67.4787 89.6534C67.0469 89.9602 66.5014 90.1136 65.8423 90.1136C65.2969 90.1136 64.812 89.9943 64.3878 89.7557C63.9635 89.5133 63.6302 89.1496 63.3878 88.6648C63.1454 88.1761 63.0241 87.5606 63.0241 86.8182V81.2727H64.3651V86.7273C64.3651 87.3636 64.5431 87.8712 64.8991 88.25C65.259 88.6288 65.7173 88.8182 66.2741 88.8182C66.6075 88.8182 66.9465 88.733 67.2912 88.5625C67.6397 88.392 67.9313 88.1307 68.1662 87.7784C68.4048 87.4261 68.5241 86.9773 68.5241 86.4318ZM76.1165 81.2727V82.4091H71.5938V81.2727H76.1165ZM72.9119 79.1818H74.2528V87.5C74.2528 87.8788 74.3078 88.1629 74.4176 88.3523C74.5313 88.5379 74.6752 88.6629 74.8494 88.7273C75.0275 88.7879 75.215 88.8182 75.4119 88.8182C75.5597 88.8182 75.6809 88.8106 75.7756 88.7955C75.8703 88.7765 75.946 88.7614 76.0028 88.75L76.2756 89.9545C76.1847 89.9886 76.0578 90.0227 75.8949 90.0568C75.732 90.0947 75.5256 90.1136 75.2756 90.1136C74.8968 90.1136 74.5256 90.0322 74.1619 89.8693C73.8021 89.7064 73.5028 89.4583 73.2642 89.125C73.0294 88.7917 72.9119 88.3712 72.9119 87.8636V79.1818ZM85.2017 90.2045C84.6487 90.2045 84.1468 90.1004 83.696 89.892C83.2453 89.6799 82.8873 89.375 82.6222 88.9773C82.357 88.5758 82.2244 88.0909 82.2244 87.5227C82.2244 87.0227 82.3229 86.6174 82.5199 86.3068C82.7169 85.9924 82.9801 85.7462 83.3097 85.5682C83.6392 85.3902 84.0028 85.2576 84.4006 85.1705C84.8021 85.0795 85.2055 85.0076 85.6108 84.9545C86.1411 84.8864 86.571 84.8352 86.9006 84.8011C87.2339 84.7633 87.4763 84.7008 87.6278 84.6136C87.7831 84.5265 87.8608 84.375 87.8608 84.1591V84.1136C87.8608 83.553 87.7074 83.1174 87.4006 82.8068C87.0975 82.4962 86.6373 82.3409 86.0199 82.3409C85.3797 82.3409 84.8778 82.4811 84.5142 82.7614C84.1506 83.0417 83.8949 83.3409 83.7472 83.6591L82.4744 83.2045C82.7017 82.6742 83.0047 82.2614 83.3835 81.9659C83.7661 81.6667 84.1828 81.4583 84.6335 81.3409C85.0881 81.2197 85.535 81.1591 85.9744 81.1591C86.2547 81.1591 86.5767 81.1932 86.9403 81.2614C87.3078 81.3258 87.6619 81.4602 88.0028 81.6648C88.3475 81.8693 88.6335 82.178 88.8608 82.5909C89.0881 83.0038 89.2017 83.5568 89.2017 84.25V90H87.8608V88.8182H87.7926C87.7017 89.0076 87.5502 89.2102 87.3381 89.4261C87.1259 89.642 86.8438 89.8258 86.4915 89.9773C86.1392 90.1288 85.7093 90.2045 85.2017 90.2045ZM85.4062 89C85.9366 89 86.3835 88.8958 86.7472 88.6875C87.1146 88.4792 87.3911 88.2102 87.5767 87.8807C87.7661 87.5511 87.8608 87.2045 87.8608 86.8409V85.6136C87.804 85.6818 87.679 85.7443 87.4858 85.8011C87.2964 85.8542 87.0767 85.9015 86.8267 85.9432C86.5805 85.9811 86.34 86.0152 86.1051 86.0455C85.8741 86.072 85.6866 86.0947 85.5426 86.1136C85.1941 86.1591 84.8684 86.233 84.5653 86.3352C84.2661 86.4337 84.0237 86.5833 83.8381 86.7841C83.6563 86.9811 83.5653 87.25 83.5653 87.5909C83.5653 88.0568 83.7377 88.4091 84.0824 88.6477C84.4309 88.8826 84.8722 89 85.4062 89ZM102.331 83.2273L101.126 83.5682C101.051 83.3674 100.939 83.1723 100.791 82.983C100.647 82.7898 100.45 82.6307 100.2 82.5057C99.9503 82.3807 99.6302 82.3182 99.2401 82.3182C98.706 82.3182 98.2609 82.4413 97.9048 82.6875C97.5526 82.9299 97.3764 83.2386 97.3764 83.6136C97.3764 83.947 97.4976 84.2102 97.7401 84.4034C97.9825 84.5966 98.3613 84.7576 98.8764 84.8864L100.172 85.2045C100.952 85.3939 101.534 85.6837 101.916 86.0739C102.299 86.4602 102.49 86.9583 102.49 87.5682C102.49 88.0682 102.346 88.5152 102.058 88.9091C101.774 89.303 101.376 89.6136 100.865 89.8409C100.354 90.0682 99.759 90.1818 99.081 90.1818C98.1908 90.1818 97.4541 89.9886 96.8707 89.6023C96.2874 89.2159 95.9181 88.6515 95.7628 87.9091L97.0355 87.5909C97.1567 88.0606 97.3859 88.4129 97.723 88.6477C98.0639 88.8826 98.509 89 99.0582 89C99.6832 89 100.179 88.8674 100.547 88.6023C100.918 88.3333 101.104 88.0114 101.104 87.6364C101.104 87.3333 100.998 87.0795 100.786 86.875C100.573 86.6667 100.248 86.5114 99.8082 86.4091L98.3537 86.0682C97.5545 85.8788 96.9673 85.5852 96.5923 85.1875C96.2211 84.786 96.0355 84.2841 96.0355 83.6818C96.0355 83.1894 96.1738 82.7538 96.4503 82.375C96.7306 81.9962 97.1113 81.6989 97.5923 81.483C98.0772 81.267 98.6264 81.1591 99.2401 81.1591C100.104 81.1591 100.782 81.3485 101.274 81.7273C101.77 82.1061 102.123 82.6061 102.331 83.2273ZM108.168 90.1818C107.327 90.1818 106.601 89.9962 105.991 89.625C105.385 89.25 104.918 88.7273 104.588 88.0568C104.262 87.3826 104.099 86.5985 104.099 85.7045C104.099 84.8106 104.262 84.0227 104.588 83.3409C104.918 82.6553 105.376 82.1212 105.963 81.7386C106.554 81.3523 107.243 81.1591 108.031 81.1591C108.486 81.1591 108.935 81.2348 109.378 81.3864C109.821 81.5379 110.224 81.7841 110.588 82.125C110.952 82.4621 111.241 82.9091 111.457 83.4659C111.673 84.0227 111.781 84.7083 111.781 85.5227V86.0909H105.054V84.9318H110.418C110.418 84.4394 110.319 84 110.122 83.6136C109.929 83.2273 109.652 82.9223 109.293 82.6989C108.937 82.4754 108.516 82.3636 108.031 82.3636C107.497 82.3636 107.035 82.4962 106.645 82.7614C106.259 83.0227 105.961 83.3636 105.753 83.7841C105.545 84.2045 105.44 84.6553 105.44 85.1364V85.9091C105.44 86.5682 105.554 87.1269 105.781 87.5852C106.012 88.0398 106.332 88.3864 106.741 88.625C107.151 88.8598 107.626 88.9773 108.168 88.9773C108.52 88.9773 108.838 88.928 109.122 88.8295C109.41 88.7273 109.658 88.5758 109.866 88.375C110.075 88.1705 110.236 87.9167 110.349 87.6136L111.645 87.9773C111.509 88.4167 111.279 88.803 110.957 89.1364C110.635 89.4659 110.238 89.7235 109.764 89.9091C109.291 90.0909 108.759 90.1818 108.168 90.1818ZM117.366 90.1818C116.548 90.1818 115.844 89.9886 115.253 89.6023C114.662 89.2159 114.207 88.6837 113.889 88.0057C113.571 87.3277 113.412 86.553 113.412 85.6818C113.412 84.7955 113.575 84.0133 113.901 83.3352C114.23 82.6534 114.688 82.1212 115.276 81.7386C115.866 81.3523 116.556 81.1591 117.344 81.1591C117.957 81.1591 118.51 81.2727 119.003 81.5C119.495 81.7273 119.899 82.0455 120.213 82.4545C120.527 82.8636 120.723 83.3409 120.798 83.8864H119.457C119.355 83.4886 119.128 83.1364 118.776 82.8295C118.427 82.5189 117.957 82.3636 117.366 82.3636C116.844 82.3636 116.385 82.5 115.991 82.7727C115.601 83.0417 115.296 83.4223 115.077 83.9148C114.861 84.4034 114.753 84.9773 114.753 85.6364C114.753 86.3106 114.859 86.8977 115.071 87.3977C115.287 87.8977 115.59 88.286 115.98 88.5625C116.374 88.839 116.836 88.9773 117.366 88.9773C117.715 88.9773 118.031 88.9167 118.315 88.7955C118.599 88.6742 118.84 88.5 119.037 88.2727C119.234 88.0455 119.374 87.7727 119.457 87.4545H120.798C120.723 87.9697 120.535 88.4337 120.236 88.8466C119.94 89.2557 119.548 89.5814 119.06 89.8239C118.575 90.0625 118.01 90.1818 117.366 90.1818ZM126.304 90.1818C125.516 90.1818 124.825 89.9943 124.23 89.6193C123.639 89.2443 123.177 88.7197 122.844 88.0455C122.514 87.3712 122.349 86.5833 122.349 85.6818C122.349 84.7727 122.514 83.9792 122.844 83.3011C123.177 82.6231 123.639 82.0966 124.23 81.7216C124.825 81.3466 125.516 81.1591 126.304 81.1591C127.092 81.1591 127.781 81.3466 128.372 81.7216C128.967 82.0966 129.429 82.6231 129.759 83.3011C130.092 83.9792 130.259 84.7727 130.259 85.6818C130.259 86.5833 130.092 87.3712 129.759 88.0455C129.429 88.7197 128.967 89.2443 128.372 89.6193C127.781 89.9943 127.092 90.1818 126.304 90.1818ZM126.304 88.9773C126.902 88.9773 127.395 88.8239 127.781 88.517C128.168 88.2102 128.454 87.8068 128.639 87.3068C128.825 86.8068 128.918 86.2652 128.918 85.6818C128.918 85.0985 128.825 84.5549 128.639 84.0511C128.454 83.5473 128.168 83.1402 127.781 82.8295C127.395 82.5189 126.902 82.3636 126.304 82.3636C125.705 82.3636 125.213 82.5189 124.827 82.8295C124.44 83.1402 124.154 83.5473 123.969 84.0511C123.783 84.5549 123.69 85.0985 123.69 85.6818C123.69 86.2652 123.783 86.8068 123.969 87.3068C124.154 87.8068 124.44 88.2102 124.827 88.517C125.213 88.8239 125.705 88.9773 126.304 88.9773ZM133.646 84.75V90H132.305V81.2727H133.601V82.6364H133.714C133.919 82.1932 134.23 81.8371 134.646 81.5682C135.063 81.2955 135.601 81.1591 136.26 81.1591C136.851 81.1591 137.368 81.2803 137.811 81.5227C138.254 81.7614 138.599 82.125 138.845 82.6136C139.091 83.0985 139.214 83.7121 139.214 84.4545V90H137.874V84.5455C137.874 83.8598 137.696 83.3258 137.339 82.9432C136.983 82.5568 136.495 82.3636 135.874 82.3636C135.446 82.3636 135.063 82.4564 134.726 82.642C134.393 82.8277 134.129 83.0985 133.936 83.4545C133.743 83.8106 133.646 84.2424 133.646 84.75ZM144.96 90.1818C144.233 90.1818 143.591 89.9981 143.034 89.6307C142.477 89.2595 142.042 88.7367 141.727 88.0625C141.413 87.3845 141.256 86.5833 141.256 85.6591C141.256 84.7424 141.413 83.947 141.727 83.2727C142.042 82.5985 142.479 82.0777 143.04 81.7102C143.6 81.3428 144.248 81.1591 144.983 81.1591C145.551 81.1591 146 81.2538 146.33 81.4432C146.663 81.6288 146.917 81.8409 147.091 82.0795C147.269 82.3144 147.407 82.5076 147.506 82.6591H147.619V78.3636H148.96V90H147.665V88.6591H147.506C147.407 88.8182 147.267 89.0189 147.085 89.2614C146.903 89.5 146.644 89.714 146.307 89.9034C145.97 90.089 145.521 90.1818 144.96 90.1818ZM145.142 88.9773C145.68 88.9773 146.134 88.8371 146.506 88.5568C146.877 88.2727 147.159 87.8807 147.352 87.3807C147.545 86.8769 147.642 86.2955 147.642 85.6364C147.642 84.9848 147.547 84.4148 147.358 83.9261C147.169 83.4337 146.888 83.0511 146.517 82.7784C146.146 82.5019 145.688 82.3636 145.142 82.3636C144.574 82.3636 144.1 82.5095 143.722 82.8011C143.347 83.089 143.064 83.4811 142.875 83.9773C142.689 84.4697 142.597 85.0227 142.597 85.6364C142.597 86.2576 142.691 86.822 142.881 87.3295C143.074 87.8333 143.358 88.2348 143.733 88.5341C144.112 88.8295 144.581 88.9773 145.142 88.9773Z" fill="white"/>
<path d="M29.3636 120C29.2386 119.617 29.0739 119.275 28.8693 118.972C28.6686 118.665 28.428 118.403 28.1477 118.188C27.8712 117.972 27.5568 117.807 27.2045 117.693C26.8523 117.58 26.4659 117.523 26.0455 117.523C25.3561 117.523 24.7292 117.701 24.1648 118.057C23.6004 118.413 23.1515 118.938 22.8182 119.631C22.4848 120.324 22.3182 121.174 22.3182 122.182C22.3182 123.189 22.4867 124.04 22.8239 124.733C23.161 125.426 23.6174 125.951 24.1932 126.307C24.7689 126.663 25.4167 126.841 26.1364 126.841C26.803 126.841 27.3902 126.699 27.8977 126.415C28.4091 126.127 28.8068 125.722 29.0909 125.199C29.3788 124.672 29.5227 124.053 29.5227 123.341L29.9545 123.432H26.4545V122.182H30.8864V123.432C30.8864 124.39 30.6818 125.223 30.2727 125.932C29.8674 126.64 29.3068 127.189 28.5909 127.58C27.8788 127.966 27.0606 128.159 26.1364 128.159C25.1061 128.159 24.2008 127.917 23.4205 127.432C22.6439 126.947 22.0379 126.258 21.6023 125.364C21.1705 124.47 20.9545 123.409 20.9545 122.182C20.9545 121.261 21.0777 120.434 21.3239 119.699C21.5739 118.96 21.9261 118.331 22.3807 117.812C22.8352 117.294 23.3731 116.896 23.9943 116.619C24.6155 116.343 25.2992 116.205 26.0455 116.205C26.6591 116.205 27.2311 116.297 27.7614 116.483C28.2955 116.665 28.7708 116.924 29.1875 117.261C29.608 117.595 29.9583 117.994 30.2386 118.46C30.5189 118.922 30.7121 119.436 30.8182 120H29.3636ZM36.777 128.182C35.9361 128.182 35.2107 127.996 34.6009 127.625C33.9948 127.25 33.527 126.727 33.1974 126.057C32.8717 125.383 32.7088 124.598 32.7088 123.705C32.7088 122.811 32.8717 122.023 33.1974 121.341C33.527 120.655 33.9853 120.121 34.5724 119.739C35.1634 119.352 35.8527 119.159 36.6406 119.159C37.0952 119.159 37.544 119.235 37.9872 119.386C38.4304 119.538 38.8338 119.784 39.1974 120.125C39.5611 120.462 39.8509 120.909 40.0668 121.466C40.2827 122.023 40.3906 122.708 40.3906 123.523V124.091H33.6634V122.932H39.027C39.027 122.439 38.9285 122 38.7315 121.614C38.5384 121.227 38.2618 120.922 37.902 120.699C37.5459 120.475 37.1255 120.364 36.6406 120.364C36.1065 120.364 35.6444 120.496 35.2543 120.761C34.8679 121.023 34.5705 121.364 34.3622 121.784C34.1539 122.205 34.0497 122.655 34.0497 123.136V123.909C34.0497 124.568 34.1634 125.127 34.3906 125.585C34.6217 126.04 34.9418 126.386 35.3509 126.625C35.7599 126.86 36.2353 126.977 36.777 126.977C37.1293 126.977 37.4474 126.928 37.7315 126.83C38.0194 126.727 38.2675 126.576 38.4759 126.375C38.6842 126.17 38.8452 125.917 38.9588 125.614L40.2543 125.977C40.1179 126.417 39.8887 126.803 39.5668 127.136C39.2448 127.466 38.8471 127.723 38.3736 127.909C37.9001 128.091 37.3679 128.182 36.777 128.182ZM46.2259 119.273V120.409H41.7031V119.273H46.2259ZM43.0213 117.182H44.3622V125.5C44.3622 125.879 44.4171 126.163 44.527 126.352C44.6406 126.538 44.7846 126.663 44.9588 126.727C45.1368 126.788 45.3243 126.818 45.5213 126.818C45.669 126.818 45.7902 126.811 45.8849 126.795C45.9796 126.777 46.0554 126.761 46.1122 126.75L46.3849 127.955C46.294 127.989 46.1671 128.023 46.0043 128.057C45.8414 128.095 45.6349 128.114 45.3849 128.114C45.0062 128.114 44.6349 128.032 44.2713 127.869C43.9115 127.706 43.6122 127.458 43.3736 127.125C43.1387 126.792 43.0213 126.371 43.0213 125.864V117.182ZM58.9247 121.227L57.7202 121.568C57.6444 121.367 57.5327 121.172 57.3849 120.983C57.241 120.79 57.044 120.631 56.794 120.506C56.544 120.381 56.224 120.318 55.8338 120.318C55.2997 120.318 54.8546 120.441 54.4986 120.688C54.1463 120.93 53.9702 121.239 53.9702 121.614C53.9702 121.947 54.0914 122.21 54.3338 122.403C54.5762 122.597 54.955 122.758 55.4702 122.886L56.7656 123.205C57.5459 123.394 58.1274 123.684 58.5099 124.074C58.8925 124.46 59.0838 124.958 59.0838 125.568C59.0838 126.068 58.9399 126.515 58.652 126.909C58.3679 127.303 57.9702 127.614 57.4588 127.841C56.9474 128.068 56.3527 128.182 55.6747 128.182C54.7846 128.182 54.0478 127.989 53.4645 127.602C52.8812 127.216 52.5118 126.652 52.3565 125.909L53.6293 125.591C53.7505 126.061 53.9796 126.413 54.3168 126.648C54.6577 126.883 55.1027 127 55.652 127C56.277 127 56.7732 126.867 57.1406 126.602C57.5118 126.333 57.6974 126.011 57.6974 125.636C57.6974 125.333 57.5914 125.08 57.3793 124.875C57.1671 124.667 56.8414 124.511 56.402 124.409L54.9474 124.068C54.1482 123.879 53.5611 123.585 53.1861 123.188C52.8149 122.786 52.6293 122.284 52.6293 121.682C52.6293 121.189 52.7675 120.754 53.044 120.375C53.3243 119.996 53.705 119.699 54.1861 119.483C54.6709 119.267 55.2202 119.159 55.8338 119.159C56.6974 119.159 57.3755 119.348 57.8679 119.727C58.3641 120.106 58.7164 120.606 58.9247 121.227ZM64.8977 119.273V120.409H60.375V119.273H64.8977ZM61.6932 117.182H63.0341V125.5C63.0341 125.879 63.089 126.163 63.1989 126.352C63.3125 126.538 63.4564 126.663 63.6307 126.727C63.8087 126.788 63.9962 126.818 64.1932 126.818C64.3409 126.818 64.4621 126.811 64.5568 126.795C64.6515 126.777 64.7273 126.761 64.7841 126.75L65.0568 127.955C64.9659 127.989 64.839 128.023 64.6761 128.057C64.5133 128.095 64.3068 128.114 64.0568 128.114C63.678 128.114 63.3068 128.032 62.9432 127.869C62.5833 127.706 62.2841 127.458 62.0455 127.125C61.8106 126.792 61.6932 126.371 61.6932 125.864V117.182ZM69.483 128.205C68.9299 128.205 68.428 128.1 67.9773 127.892C67.5265 127.68 67.1686 127.375 66.9034 126.977C66.6383 126.576 66.5057 126.091 66.5057 125.523C66.5057 125.023 66.6042 124.617 66.8011 124.307C66.9981 123.992 67.2614 123.746 67.5909 123.568C67.9205 123.39 68.2841 123.258 68.6818 123.17C69.0833 123.08 69.4867 123.008 69.892 122.955C70.4223 122.886 70.8523 122.835 71.1818 122.801C71.5152 122.763 71.7576 122.701 71.9091 122.614C72.0644 122.527 72.142 122.375 72.142 122.159V122.114C72.142 121.553 71.9886 121.117 71.6818 120.807C71.3788 120.496 70.9186 120.341 70.3011 120.341C69.661 120.341 69.1591 120.481 68.7955 120.761C68.4318 121.042 68.1761 121.341 68.0284 121.659L66.7557 121.205C66.983 120.674 67.286 120.261 67.6648 119.966C68.0473 119.667 68.464 119.458 68.9148 119.341C69.3693 119.22 69.8163 119.159 70.2557 119.159C70.536 119.159 70.858 119.193 71.2216 119.261C71.589 119.326 71.9432 119.46 72.2841 119.665C72.6288 119.869 72.9148 120.178 73.142 120.591C73.3693 121.004 73.483 121.557 73.483 122.25V128H72.142V126.818H72.0739C71.983 127.008 71.8314 127.21 71.6193 127.426C71.4072 127.642 71.125 127.826 70.7727 127.977C70.4205 128.129 69.9905 128.205 69.483 128.205ZM69.6875 127C70.2178 127 70.6648 126.896 71.0284 126.688C71.3958 126.479 71.6723 126.21 71.858 125.881C72.0473 125.551 72.142 125.205 72.142 124.841V123.614C72.0852 123.682 71.9602 123.744 71.767 123.801C71.5777 123.854 71.358 123.902 71.108 123.943C70.8617 123.981 70.6212 124.015 70.3864 124.045C70.1553 124.072 69.9678 124.095 69.8239 124.114C69.4754 124.159 69.1496 124.233 68.8466 124.335C68.5473 124.434 68.3049 124.583 68.1193 124.784C67.9375 124.981 67.8466 125.25 67.8466 125.591C67.8466 126.057 68.0189 126.409 68.3636 126.648C68.7121 126.883 69.1534 127 69.6875 127ZM75.9304 128V119.273H77.2259V120.591H77.3168C77.4759 120.159 77.7637 119.809 78.1804 119.54C78.5971 119.271 79.0668 119.136 79.5895 119.136C79.688 119.136 79.8111 119.138 79.9588 119.142C80.1065 119.146 80.2183 119.152 80.294 119.159V120.523C80.2486 120.511 80.1444 120.494 79.9815 120.472C79.8224 120.445 79.6539 120.432 79.4759 120.432C79.0516 120.432 78.6728 120.521 78.3395 120.699C78.0099 120.873 77.7486 121.116 77.5554 121.426C77.366 121.733 77.2713 122.083 77.2713 122.477V128H75.9304ZM86.2259 119.273V120.409H81.7031V119.273H86.2259ZM83.0213 117.182H84.3622V125.5C84.3622 125.879 84.4171 126.163 84.527 126.352C84.6406 126.538 84.7846 126.663 84.9588 126.727C85.1368 126.788 85.3243 126.818 85.5213 126.818C85.669 126.818 85.7902 126.811 85.8849 126.795C85.9796 126.777 86.0554 126.761 86.1122 126.75L86.3849 127.955C86.294 127.989 86.1671 128.023 86.0043 128.057C85.8414 128.095 85.6349 128.114 85.3849 128.114C85.0062 128.114 84.6349 128.032 84.2713 127.869C83.9115 127.706 83.6122 127.458 83.3736 127.125C83.1387 126.792 83.0213 126.371 83.0213 125.864V117.182ZM91.8082 128.182C90.9673 128.182 90.242 127.996 89.6321 127.625C89.026 127.25 88.5582 126.727 88.2287 126.057C87.9029 125.383 87.7401 124.598 87.7401 123.705C87.7401 122.811 87.9029 122.023 88.2287 121.341C88.5582 120.655 89.0166 120.121 89.6037 119.739C90.1946 119.352 90.884 119.159 91.6719 119.159C92.1264 119.159 92.5753 119.235 93.0185 119.386C93.4616 119.538 93.8651 119.784 94.2287 120.125C94.5923 120.462 94.8821 120.909 95.098 121.466C95.3139 122.023 95.4219 122.708 95.4219 123.523V124.091H88.6946V122.932H94.0582C94.0582 122.439 93.9598 122 93.7628 121.614C93.5696 121.227 93.2931 120.922 92.9332 120.699C92.5772 120.475 92.1567 120.364 91.6719 120.364C91.1378 120.364 90.6757 120.496 90.2855 120.761C89.8991 121.023 89.6018 121.364 89.3935 121.784C89.1851 122.205 89.081 122.655 89.081 123.136V123.909C89.081 124.568 89.1946 125.127 89.4219 125.585C89.6529 126.04 89.973 126.386 90.3821 126.625C90.7912 126.86 91.2666 126.977 91.8082 126.977C92.1605 126.977 92.4787 126.928 92.7628 126.83C93.0507 126.727 93.2988 126.576 93.5071 126.375C93.7154 126.17 93.8764 125.917 93.9901 125.614L95.2855 125.977C95.1491 126.417 94.92 126.803 94.598 127.136C94.276 127.466 93.8783 127.723 93.4048 127.909C92.9313 128.091 92.3991 128.182 91.8082 128.182ZM100.757 128.182C100.03 128.182 99.3878 127.998 98.831 127.631C98.2741 127.259 97.8385 126.737 97.5241 126.062C97.2098 125.384 97.0526 124.583 97.0526 123.659C97.0526 122.742 97.2098 121.947 97.5241 121.273C97.8385 120.598 98.276 120.078 98.8366 119.71C99.3973 119.343 100.045 119.159 100.78 119.159C101.348 119.159 101.797 119.254 102.126 119.443C102.46 119.629 102.714 119.841 102.888 120.08C103.066 120.314 103.204 120.508 103.303 120.659H103.416V116.364H104.757V128H103.462V126.659H103.303C103.204 126.818 103.064 127.019 102.882 127.261C102.7 127.5 102.441 127.714 102.104 127.903C101.767 128.089 101.318 128.182 100.757 128.182ZM100.939 126.977C101.477 126.977 101.931 126.837 102.303 126.557C102.674 126.273 102.956 125.881 103.149 125.381C103.342 124.877 103.439 124.295 103.439 123.636C103.439 122.985 103.344 122.415 103.155 121.926C102.965 121.434 102.685 121.051 102.314 120.778C101.943 120.502 101.484 120.364 100.939 120.364C100.371 120.364 99.8973 120.509 99.5185 120.801C99.1435 121.089 98.8613 121.481 98.6719 121.977C98.4863 122.47 98.3935 123.023 98.3935 123.636C98.3935 124.258 98.4882 124.822 98.6776 125.33C98.8707 125.833 99.1548 126.235 99.5298 126.534C99.9086 126.83 100.378 126.977 100.939 126.977Z" fill="white"/>
<path d="M116 122C116 122.199 116.079 122.39 116.22 122.53C116.36 122.671 116.551 122.75 116.75 122.75H127.44L121.969 128.219C121.9 128.289 121.844 128.372 121.807 128.463C121.769 128.554 121.75 128.651 121.75 128.75C121.75 128.848 121.769 128.946 121.807 129.037C121.844 129.128 121.9 129.211 121.969 129.281C122.039 129.35 122.122 129.406 122.213 129.443C122.304 129.481 122.401 129.5 122.5 129.5C122.599 129.5 122.696 129.481 122.787 129.443C122.878 129.406 122.961 129.35 123.031 129.281L129.781 122.531C129.85 122.461 129.906 122.378 129.943 122.287C129.981 122.196 130.001 122.098 130.001 122C130.001 121.901 129.981 121.804 129.943 121.713C129.906 121.622 129.85 121.539 129.781 121.469L123.031 114.719C122.89 114.579 122.699 114.5 122.5 114.5C122.301 114.5 122.11 114.579 121.969 114.719C121.829 114.86 121.75 115.051 121.75 115.25C121.75 115.449 121.829 115.64 121.969 115.781L127.44 121.25H116.75C116.551 121.25 116.36 121.329 116.22 121.47C116.079 121.61 116 121.801 116 122Z" fill="white"/>
</svg>
