<svg width="19" height="17" viewBox="0 0 19 17" fill="none" xmlns="http://www.w3.org/2000/svg">
<path d="M8.11475 7.10907C8.11475 6.90511 8.17523 6.70573 8.28854 6.53614C8.40186 6.36655 8.56292 6.23437 8.75135 6.15632C8.93979 6.07827 9.14714 6.05784 9.34718 6.09763C9.54723 6.13743 9.73098 6.23564 9.8752 6.37987C10.0194 6.52409 10.1176 6.70784 10.1574 6.90788C10.1972 7.10793 10.1768 7.31528 10.0987 7.50371C10.0207 7.69215 9.88852 7.85321 9.71893 7.96652C9.54934 8.07984 9.34996 8.14032 9.146 8.14032C8.87249 8.14032 8.61019 8.03167 8.41679 7.83827C8.2234 7.64488 8.11475 7.38257 8.11475 7.10907ZM5.36475 8.14032C5.56871 8.14032 5.76809 8.07984 5.93768 7.96652C6.10727 7.85321 6.23944 7.69215 6.3175 7.50371C6.39555 7.31528 6.41597 7.10793 6.37618 6.90788C6.33639 6.70784 6.23817 6.52409 6.09395 6.37987C5.94973 6.23564 5.76598 6.13743 5.56593 6.09763C5.36589 6.05784 5.15854 6.07827 4.9701 6.15632C4.78167 6.23437 4.62061 6.36655 4.50729 6.53614C4.39398 6.70573 4.3335 6.90511 4.3335 7.10907C4.3335 7.38257 4.44215 7.64488 4.63554 7.83827C4.82894 8.03167 5.09124 8.14032 5.36475 8.14032ZM12.9272 8.14032C13.1312 8.14032 13.3306 8.07984 13.5002 7.96652C13.6698 7.85321 13.8019 7.69215 13.88 7.50371C13.958 7.31528 13.9785 7.10793 13.9387 6.90788C13.8989 6.70784 13.8007 6.52409 13.6564 6.37987C13.5122 6.23564 13.3285 6.13743 13.1284 6.09763C12.9284 6.05784 12.721 6.07827 12.5326 6.15632C12.3442 6.23437 12.1831 6.36655 12.0698 6.53614C11.9565 6.70573 11.896 6.90511 11.896 7.10907C11.896 7.38257 12.0046 7.64488 12.198 7.83827C12.3914 8.03167 12.6537 8.14032 12.9272 8.14032ZM18.0835 1.60907V12.6091C18.0835 12.9737 17.9386 13.3235 17.6808 13.5813C17.4229 13.8392 17.0732 13.9841 16.7085 13.9841H11.5153L10.3397 16.0414C10.2194 16.2518 10.0456 16.4267 9.836 16.5483C9.62638 16.6699 9.38834 16.7339 9.146 16.7339C8.90365 16.7339 8.66561 16.6699 8.45599 16.5483C8.24637 16.4267 8.07261 16.2518 7.95232 16.0414L6.7767 13.9841H1.5835C1.21882 13.9841 0.869087 13.8392 0.611224 13.5813C0.353362 13.3235 0.208496 12.9737 0.208496 12.6091V1.60907C0.208496 1.2444 0.353362 0.89466 0.611224 0.636798C0.869087 0.378935 1.21882 0.23407 1.5835 0.23407H16.7085C17.0732 0.23407 17.4229 0.378935 17.6808 0.636798C17.9386 0.89466 18.0835 1.2444 18.0835 1.60907ZM16.7085 1.60907H1.5835V12.6091H7.17545C7.29717 12.608 7.41701 12.6392 7.5227 12.6996C7.62839 12.76 7.71615 12.8474 7.77701 12.9528L9.15201 15.3591L10.527 12.9528C10.5879 12.8474 10.6756 12.76 10.7813 12.6996C10.887 12.6392 11.0068 12.608 11.1286 12.6091H16.7085V1.60907Z" fill="#777777"/>
</svg>
