<svg width="38" height="37" viewBox="0 0 38 37" fill="none" xmlns="http://www.w3.org/2000/svg">
<g clip-path="url(#clip0_155_1345)">
<path d="M15.5592 21.792H22.4409V27.8135H15.5592V21.792Z" fill="url(#paint0_linear_155_1345)"/>
<path d="M15.5592 25.2324C16.344 26.068 17.593 26.6661 19 26.6661C20.4392 26.6661 21.6601 26.1007 22.4409 25.2324V36.1287H19H15.5592V25.2324Z" fill="url(#paint1_linear_155_1345)"/>
<path d="M15.5592 25.2324C16.344 26.068 17.593 26.6661 19.0001 26.6661C20.4392 26.6661 21.6601 26.1007 22.4409 25.2324C22.7586 25.3027 23.1517 25.3976 23.595 25.512C22.9281 26.8513 21.1254 27.813 19.0001 27.813C16.8748 27.813 15.0721 26.8513 14.4051 25.512C14.8484 25.3976 15.2415 25.303 15.5592 25.2324Z" fill="url(#paint2_linear_155_1345)"/>
<path d="M10.6847 28.3867L5.52343 27.8135C5.52343 27.8135 2.65607 30.6808 1.22239 36.1288H10.6847V28.3867Z" fill="url(#paint3_linear_155_1345)"/>
<path d="M14.4123 24.946C12.3681 25.3988 7.21834 26.5704 5.52344 27.8134L8.3908 36.1288H17.8531L14.4123 24.946Z" fill="url(#paint4_linear_155_1345)"/>
<path d="M27.3154 28.3867L32.4767 27.8135C32.4767 27.8135 35.3441 30.6808 36.7777 36.1288H27.3154V28.3867Z" fill="url(#paint5_linear_155_1345)"/>
<path d="M23.5878 24.946C25.632 25.3988 30.7818 26.5704 32.4766 27.8134L29.6093 36.1288H20.147L23.5878 24.946Z" fill="url(#paint6_linear_155_1345)"/>
<path d="M29.3225 15.1561C29.3225 16.4229 28.4239 17.7777 27.3154 17.7777C26.2068 17.7777 25.3082 16.4229 25.3082 15.1561C25.3082 13.8893 26.2068 13.1899 27.3154 13.1899C28.4239 13.1899 29.3225 13.8893 29.3225 15.1561Z" fill="url(#paint7_linear_155_1345)"/>
<path d="M12.4051 15.1561C12.4051 16.4229 11.5065 17.7777 10.3979 17.7777C9.28942 17.7777 8.39079 16.4229 8.39079 15.1561C8.39079 13.8893 9.28942 13.1899 10.3979 13.1899C11.5065 13.1899 12.4051 13.8893 12.4051 15.1561Z" fill="url(#paint8_linear_155_1345)"/>
<path d="M26.1684 8.02856H11.8316C11.1899 8.18426 10.6847 8.80189 10.6847 9.46225V15.199C10.6847 20.0715 14.4123 23.7991 19 23.7991C23.5878 23.7991 27.3154 20.0715 27.3154 15.199V9.46225C27.3154 8.79989 26.8127 8.18254 26.1684 8.02856Z" fill="url(#paint9_linear_155_1345)"/>
<path d="M19 0.573486C23.4975 0.573486 28.4623 4.06823 28.4623 9.46231C28.4474 12.8779 27.3154 15.197 27.3154 15.197C27.3154 13.4766 26.4552 9.46231 26.4552 9.46231C21.5807 10.6093 11.8316 8.31537 11.8316 8.31537C11.8316 8.31537 10.6847 10.0358 10.6847 15.197C10.6847 15.197 8.96426 13.1899 8.96426 9.74905C8.96426 5.45833 10.9714 4.58779 10.9714 4.58779C10.9714 4.58779 11.5449 0.573486 19 0.573486Z" fill="url(#paint10_linear_155_1345)"/>
<path d="M18.9949 21.7921C18.3469 21.7921 17.7005 21.5833 17.1133 21.1664C16.9843 21.0747 16.9539 20.8958 17.0456 20.7664C17.1374 20.6371 17.3163 20.6073 17.4456 20.6988C18.4271 21.3964 19.5606 21.3961 20.5559 20.6979C20.6852 20.6067 20.8644 20.6383 20.9553 20.7679C21.0462 20.8975 21.0149 21.0764 20.8853 21.1673C20.2915 21.5836 19.6423 21.7921 18.9949 21.7921Z" fill="url(#paint11_linear_155_1345)"/>
<path d="M15.2724 16.3442C15.7475 16.3442 16.1326 15.9591 16.1326 15.484C16.1326 15.0089 15.7475 14.6238 15.2724 14.6238C14.7973 14.6238 14.4122 15.0089 14.4122 15.484C14.4122 15.9591 14.7973 16.3442 15.2724 16.3442Z" fill="url(#paint12_linear_155_1345)"/>
<path d="M22.7275 16.3442C23.2026 16.3442 23.5878 15.9591 23.5878 15.484C23.5878 15.0089 23.2026 14.6238 22.7275 14.6238C22.2525 14.6238 21.8673 15.0089 21.8673 15.484C21.8673 15.9591 22.2525 16.3442 22.7275 16.3442Z" fill="url(#paint13_linear_155_1345)"/>
<path d="M16.9926 13.1886C16.9407 13.1886 16.8886 13.1746 16.8412 13.1453C15.2473 12.1529 14.209 12.8205 13.7657 13.1058L13.7055 13.1445C13.5713 13.2291 13.3944 13.1889 13.3098 13.0553C13.2252 12.9214 13.2651 12.7445 13.399 12.6596L13.4557 12.6235C13.9443 12.3089 15.2433 11.4745 17.1446 12.6587C17.2791 12.7425 17.3201 12.9194 17.2364 13.0536C17.1819 13.1407 17.0884 13.1886 16.9926 13.1886Z" fill="url(#paint14_linear_155_1345)"/>
<path d="M21.0074 13.1883C20.9117 13.1883 20.8182 13.1404 20.7637 13.0533C20.68 12.9188 20.721 12.7419 20.8555 12.6584C22.7571 11.4736 24.0557 12.3089 24.5446 12.6231L24.6011 12.6593C24.735 12.7439 24.7746 12.9211 24.6903 13.055C24.6057 13.1889 24.4285 13.2287 24.2946 13.1441L24.2344 13.1057C23.7914 12.8207 22.7525 12.1529 21.1585 13.1453C21.1115 13.1743 21.0593 13.1883 21.0074 13.1883Z" fill="url(#paint15_linear_155_1345)"/>
<path d="M18.9988 19.2115C18.9983 19.2115 18.998 19.2115 18.9974 19.2115C18.7178 19.2109 18.448 19.0805 18.2172 18.8342C18.1091 18.7186 18.1148 18.5371 18.2304 18.4287C18.3459 18.3209 18.5274 18.3264 18.6358 18.4419C18.7195 18.5311 18.8503 18.6378 18.9983 18.638H18.9988C19.1479 18.638 19.2801 18.5311 19.365 18.4411C19.4737 18.3258 19.6552 18.3206 19.7704 18.4293C19.8854 18.538 19.8909 18.7195 19.7822 18.8347C19.5494 19.0813 19.2787 19.2115 18.9988 19.2115Z" fill="url(#paint16_linear_155_1345)"/>
<path d="M15.5592 24.0859L17.8531 36.1289L13.2653 31.8278L13.8388 29.5339L11.8316 29.2469L14.1255 24.9459C14.3583 24.5246 15.0216 24.0862 15.5592 24.0859Z" fill="url(#paint17_linear_155_1345)"/>
<path d="M22.4409 24.0859L20.147 36.1289L24.7348 31.8278L24.1613 29.5339L26.1684 29.2469L23.8746 24.9459C23.6417 24.5246 22.9785 24.0862 22.4409 24.0859Z" fill="url(#paint18_linear_155_1345)"/>
<path d="M14.1255 34.1218H12.6918C12.5335 34.1218 12.405 33.9936 12.405 33.835C12.405 33.6765 12.5335 33.5483 12.6918 33.5483H14.1255C14.4417 33.5483 14.6989 33.2911 14.6989 32.9748V30.1075C14.6989 28.6844 13.5411 27.5268 12.1183 27.5268C10.6955 27.5268 9.53768 28.6844 9.53768 30.1075V32.9748C9.53768 33.2911 9.79489 33.5483 10.1112 33.5483H11.2581C11.4164 33.5483 11.5448 33.6765 11.5448 33.835C11.5448 33.9936 11.4164 34.1218 11.2581 34.1218H10.1112C9.47862 34.1218 8.96421 33.6074 8.96421 32.9748V30.1075C8.96421 28.3684 10.3793 26.9534 12.1183 26.9534C13.8574 26.9534 15.2724 28.3684 15.2724 30.1075V32.9748C15.2724 33.6074 14.758 34.1218 14.1255 34.1218Z" fill="url(#paint19_linear_155_1345)"/>
<path d="M12.1183 26.9534C10.3793 26.9534 8.96421 28.3684 8.96421 30.1075H9.53768C9.53768 28.6844 10.6955 27.5268 12.1183 27.5268C13.5411 27.5268 14.6989 28.6844 14.6989 30.1075H15.2724C15.2724 28.3684 13.8574 26.9534 12.1183 26.9534Z" fill="url(#paint20_linear_155_1345)"/>
<path d="M11.2581 33.5483H10.6846V34.1218H11.2581C11.4163 34.1218 11.5448 33.9936 11.5448 33.8351C11.5448 33.6765 11.4163 33.5483 11.2581 33.5483Z" fill="url(#paint21_linear_155_1345)"/>
<path d="M12.6917 33.5483H13.2652V34.1218H12.6917C12.5334 34.1218 12.405 33.9936 12.405 33.8351C12.405 33.6765 12.5334 33.5483 12.6917 33.5483Z" fill="url(#paint22_linear_155_1345)"/>
<path d="M23.5829 22.4045C23.2898 22.6018 22.9839 22.7805 22.6665 22.939H23.0143C25.2279 22.939 27.0286 24.7397 27.0286 26.9533V30.3942C27.0286 30.5527 27.157 30.6809 27.3153 30.6809C27.4736 30.6809 27.602 30.5527 27.602 30.3942V26.9533C27.602 24.6167 25.8446 22.6861 23.5829 22.4045Z" fill="url(#paint23_linear_155_1345)"/>
<path d="M14.4354 22.4167C12.9582 22.678 11.8316 23.9683 11.8316 25.5195V27.2399C11.8316 27.3985 11.96 27.5267 12.1183 27.5267C12.2766 27.5267 12.405 27.3985 12.405 27.2399V25.5195C12.405 24.0964 13.5629 22.9389 14.9857 22.9389C15.0617 22.9389 15.1299 22.9082 15.1812 22.8598C14.9246 22.725 14.6757 22.5773 14.4354 22.4167Z" fill="url(#paint24_linear_155_1345)"/>
<path d="M27.3154 32.9748C28.1072 32.9748 28.7491 32.3329 28.7491 31.5411C28.7491 30.7493 28.1072 30.1074 27.3154 30.1074C26.5236 30.1074 25.8817 30.7493 25.8817 31.5411C25.8817 32.3329 26.5236 32.9748 27.3154 32.9748Z" fill="url(#paint25_linear_155_1345)"/>
<path d="M27.3154 32.9748C28.1072 32.9748 28.7491 32.3329 28.7491 31.5411C28.7491 30.7493 28.1072 30.1074 27.3154 30.1074C26.5236 30.1074 25.8817 30.7493 25.8817 31.5411C25.8817 32.3329 26.5236 32.9748 27.3154 32.9748Z" fill="url(#paint26_linear_155_1345)"/>
<mask id="mask0_155_1345" style="mask-type:luminance" maskUnits="userSpaceOnUse" x="25" y="30" width="4" height="3">
<path d="M27.3154 32.9748C28.1072 32.9748 28.7491 32.3329 28.7491 31.5411C28.7491 30.7493 28.1072 30.1074 27.3154 30.1074C26.5236 30.1074 25.8817 30.7493 25.8817 31.5411C25.8817 32.3329 26.5236 32.9748 27.3154 32.9748Z" fill="white"/>
</mask>
<g mask="url(#mask0_155_1345)">
<path d="M25.8817 30.1074H28.7491V32.9748H25.8817V30.1074Z" fill="url(#paint27_linear_155_1345)"/>
</g>
<path d="M27.3153 33.2616C26.3665 33.2616 25.5949 32.49 25.5949 31.5412C25.5949 30.5924 26.3665 29.8208 27.3153 29.8208C28.2641 29.8208 29.0358 30.5924 29.0358 31.5412C29.0358 32.49 28.2641 33.2616 27.3153 33.2616ZM27.3153 30.3943C26.6828 30.3943 26.1684 30.9087 26.1684 31.5412C26.1684 32.1738 26.6828 32.6882 27.3153 32.6882C27.9479 32.6882 28.4623 32.1738 28.4623 31.5412C28.4623 30.9087 27.9479 30.3943 27.3153 30.3943Z" fill="url(#paint28_linear_155_1345)"/>
</g>
<defs>
<linearGradient id="paint0_linear_155_1345" x1="19" y1="26.9054" x2="19" y2="23.8946" gradientUnits="userSpaceOnUse">
<stop stop-color="#F6CFBE"/>
<stop offset="1" stop-color="#EDAD99"/>
</linearGradient>
<linearGradient id="paint1_linear_155_1345" x1="18.7575" y1="21.5848" x2="18.6826" y2="18.776" gradientUnits="userSpaceOnUse">
<stop stop-color="#FFCF97"/>
<stop offset="1" stop-color="#FFAC6A"/>
</linearGradient>
<linearGradient id="paint2_linear_155_1345" x1="19.6091" y1="15.2606" x2="19.3224" y2="20.0872" gradientUnits="userSpaceOnUse">
<stop stop-color="#FFCF97"/>
<stop offset="1" stop-color="#FFAC6A"/>
</linearGradient>
<linearGradient id="paint3_linear_155_1345" x1="5.16243" y1="43.7339" x2="6.14278" y2="34.3124" gradientUnits="userSpaceOnUse">
<stop stop-color="#EFF0F0"/>
<stop offset="1" stop-color="#E4E5E6"/>
</linearGradient>
<linearGradient id="paint4_linear_155_1345" x1="10.5688" y1="41.5983" x2="9.66764" y2="49.3493" gradientUnits="userSpaceOnUse">
<stop stop-color="#EFF0F0"/>
<stop offset="1" stop-color="#E4E5E6"/>
</linearGradient>
<linearGradient id="paint5_linear_155_1345" x1="32.838" y1="43.7339" x2="31.8576" y2="34.3124" gradientUnits="userSpaceOnUse">
<stop stop-color="#EFF0F0"/>
<stop offset="1" stop-color="#E4E5E6"/>
</linearGradient>
<linearGradient id="paint6_linear_155_1345" x1="27.4312" y1="41.5983" x2="28.3324" y2="49.3493" gradientUnits="userSpaceOnUse">
<stop stop-color="#EFF0F0"/>
<stop offset="1" stop-color="#E4E5E6"/>
</linearGradient>
<linearGradient id="paint7_linear_155_1345" x1="27.3154" y1="6.78626" x2="27.3154" y2="20.7429" gradientUnits="userSpaceOnUse">
<stop stop-color="#F6CFBE"/>
<stop offset="1" stop-color="#EDAD99"/>
</linearGradient>
<linearGradient id="paint8_linear_155_1345" x1="10.3979" y1="6.78626" x2="10.3979" y2="20.7429" gradientUnits="userSpaceOnUse">
<stop stop-color="#F6CFBE"/>
<stop offset="1" stop-color="#EDAD99"/>
</linearGradient>
<linearGradient id="paint9_linear_155_1345" x1="20.3927" y1="5.49668" x2="21.1812" y2="1.41069" gradientUnits="userSpaceOnUse">
<stop stop-color="#F6CFBE"/>
<stop offset="1" stop-color="#EDAD99"/>
</linearGradient>
<linearGradient id="paint10_linear_155_1345" x1="18.7133" y1="-4.94619" x2="18.7133" y2="18.91" gradientUnits="userSpaceOnUse">
<stop stop-color="#957E7F"/>
<stop offset="1" stop-color="#373638"/>
</linearGradient>
<linearGradient id="paint11_linear_155_1345" x1="19.3473" y1="15.7245" x2="19.2039" y2="17.875" gradientUnits="userSpaceOnUse">
<stop stop-color="#F6CFBE"/>
<stop offset="1" stop-color="#EDAD99"/>
</linearGradient>
<linearGradient id="paint12_linear_155_1345" x1="15.2024" y1="24.8032" x2="15.2383" y2="20.0365" gradientUnits="userSpaceOnUse">
<stop stop-color="#58595B"/>
<stop offset="1" stop-color="#414042"/>
</linearGradient>
<linearGradient id="paint13_linear_155_1345" x1="22.6573" y1="24.8454" x2="22.6931" y2="20.0784" gradientUnits="userSpaceOnUse">
<stop stop-color="#58595B"/>
<stop offset="1" stop-color="#414042"/>
</linearGradient>
<linearGradient id="paint14_linear_155_1345" x1="15.1575" y1="28.1967" x2="15.2054" y2="21.8409" gradientUnits="userSpaceOnUse">
<stop stop-color="#58595B"/>
<stop offset="1" stop-color="#414042"/>
</linearGradient>
<linearGradient id="paint15_linear_155_1345" x1="22.612" y1="28.2526" x2="22.6599" y2="21.8965" gradientUnits="userSpaceOnUse">
<stop stop-color="#58595B"/>
<stop offset="1" stop-color="#414042"/>
</linearGradient>
<linearGradient id="paint16_linear_155_1345" x1="12.3956" y1="20.0812" x2="14.6717" y2="19.6152" gradientUnits="userSpaceOnUse">
<stop stop-color="#F6CFBE"/>
<stop offset="1" stop-color="#EDAD99"/>
</linearGradient>
<linearGradient id="paint17_linear_155_1345" x1="17.8224" y1="45.4664" x2="17.255" y2="42.8812" gradientUnits="userSpaceOnUse">
<stop stop-color="#EFF0F0"/>
<stop offset="1" stop-color="#E4E5E6"/>
</linearGradient>
<linearGradient id="paint18_linear_155_1345" x1="20.1779" y1="45.4664" x2="20.7454" y2="42.8812" gradientUnits="userSpaceOnUse">
<stop stop-color="#EFF0F0"/>
<stop offset="1" stop-color="#E4E5E6"/>
</linearGradient>
<linearGradient id="paint19_linear_155_1345" x1="12.5407" y1="36.3962" x2="12.4759" y2="35.6446" gradientUnits="userSpaceOnUse">
<stop stop-color="#D0D3D3"/>
<stop offset="1" stop-color="#AAAEB1"/>
</linearGradient>
<linearGradient id="paint20_linear_155_1345" x1="11.152" y1="22.2773" x2="11.2237" y2="22.8507" gradientUnits="userSpaceOnUse">
<stop stop-color="#58595B"/>
<stop offset="1" stop-color="#414042"/>
</linearGradient>
<linearGradient id="paint21_linear_155_1345" x1="11.1442" y1="34.3136" x2="11.1388" y2="34.25" gradientUnits="userSpaceOnUse">
<stop stop-color="#58595B"/>
<stop offset="1" stop-color="#414042"/>
</linearGradient>
<linearGradient id="paint22_linear_155_1345" x1="12.8056" y1="34.3136" x2="12.811" y2="34.25" gradientUnits="userSpaceOnUse">
<stop stop-color="#58595B"/>
<stop offset="1" stop-color="#414042"/>
</linearGradient>
<linearGradient id="paint23_linear_155_1345" x1="24.6085" y1="20.5952" x2="24.6802" y2="21.1687" gradientUnits="userSpaceOnUse">
<stop stop-color="#58595B"/>
<stop offset="1" stop-color="#414042"/>
</linearGradient>
<linearGradient id="paint24_linear_155_1345" x1="13.1276" y1="22.0302" x2="13.1993" y2="22.6037" gradientUnits="userSpaceOnUse">
<stop stop-color="#58595B"/>
<stop offset="1" stop-color="#414042"/>
</linearGradient>
<linearGradient id="paint25_linear_155_1345" x1="30.2318" y1="32.5759" x2="30.9262" y2="32.8222" gradientUnits="userSpaceOnUse">
<stop stop-color="#6C6F73"/>
<stop offset="1" stop-color="#56585B"/>
</linearGradient>
<linearGradient id="paint26_linear_155_1345" x1="21.7094" y1="30.7956" x2="23.9557" y2="31.0944" gradientUnits="userSpaceOnUse">
<stop stop-color="#58595B"/>
<stop offset="1" stop-color="#414042"/>
</linearGradient>
<linearGradient id="paint27_linear_155_1345" x1="21.7094" y1="30.7956" x2="23.9557" y2="31.0944" gradientUnits="userSpaceOnUse">
<stop stop-color="#6C6F73"/>
<stop offset="1" stop-color="#56585B"/>
</linearGradient>
<linearGradient id="paint28_linear_155_1345" x1="21.7094" y1="30.7957" x2="23.9556" y2="31.0945" gradientUnits="userSpaceOnUse">
<stop stop-color="#D0D3D3"/>
<stop offset="1" stop-color="#AAAEB1"/>
</linearGradient>
<clipPath id="clip0_155_1345">
<rect width="36.7022" height="36.7022" fill="white" transform="translate(0.64888)"/>
</clipPath>
</defs>
</svg>
