<svg width="114" height="95" viewBox="0 0 114 95" fill="none" xmlns="http://www.w3.org/2000/svg">
<path d="M102.883 170.345L96.0929 177.167L94.9881 179.387L93.0218 177.411L19.306 103.338C19.306 103.338 19.3059 103.338 19.3059 103.338C8.14953 92.1288 2 77.2177 2 61.365C2 45.5123 8.14955 30.6012 19.306 19.3919C30.4627 8.18229 45.3078 2 61.0944 2C76.8809 2 91.726 8.18229 102.883 19.3919C122.943 39.5477 134 66.3604 134 94.8682C134 123.376 122.951 150.189 102.883 170.345ZM124.896 94.8682C124.896 68.7836 114.788 44.2738 96.437 25.8351L96.4365 25.8346C86.989 16.3496 74.4444 11.1279 61.0944 11.1279C47.7434 11.1279 35.1991 16.3429 25.7522 25.8346C16.3117 35.3272 11.111 47.9357 11.111 61.3577C11.111 74.7806 16.305 87.3888 25.7522 96.8808L94.4467 165.901L96.4365 163.902C114.788 145.463 124.896 120.953 124.896 94.8682Z" fill="#D5B3C2" stroke="#D5B3C2" stroke-width="4"/>
</svg>
