<svg width="390" height="158" viewBox="0 0 390 158" fill="none" xmlns="http://www.w3.org/2000/svg">
<g clip-path="url(#clip0_5_5053)">
<path d="M0 -86H390V148C390 153.523 385.523 158 380 158H10C4.47715 158 0 153.523 0 148V-86Z" fill="#FFF4EE"/>
<path d="M135.867 685.117L109.995 711.127L108.87 713.387L106.904 711.41L-167.227 435.791C-207.699 395.104 -230 341.002 -230 283.451C-230 225.9 -207.699 171.799 -167.227 131.112C-126.756 90.4241 -72.9359 68 -15.6804 68C41.5752 68 95.3951 90.4241 135.867 131.112C209.451 205.088 250 303.475 250 408.114C250 512.754 209.478 611.141 135.867 685.117ZM227.021 408.114C227.021 309.619 188.864 217.038 119.602 147.406C83.4524 111.091 35.4169 91.0805 -15.6804 91.0805C-66.778 91.0805 -114.813 111.064 -150.962 147.405C-187.085 183.748 -206.993 232.045 -206.993 283.424C-206.993 334.804 -187.112 383.1 -150.962 419.442L108.349 680.135L119.602 668.823C188.864 599.191 227.021 506.61 227.021 408.114Z" fill="#D5B3C2" stroke="#D5B3C2" stroke-width="4"/>
</g>
<defs>
<clipPath id="clip0_5_5053">
<path d="M0 -86H390V148C390 153.523 385.523 158 380 158H10C4.47715 158 0 153.523 0 148V-86Z" fill="white"/>
</clipPath>
</defs>
</svg>
