<svg width="22" height="22" viewBox="0 0 22 22" fill="none" xmlns="http://www.w3.org/2000/svg">
<path d="M19.0481 9.46442L12.1731 2.58942C11.9153 2.33175 11.5657 2.18701 11.2012 2.18701C10.8367 2.18701 10.4871 2.33175 10.2292 2.58942L3.35423 9.46442C3.22593 9.59177 3.12422 9.74335 3.05503 9.91036C2.98584 10.0774 2.95054 10.2565 2.95118 10.4372V18.6872C2.95118 18.8696 3.02361 19.0444 3.15254 19.1734C3.28148 19.3023 3.45634 19.3747 3.63868 19.3747H9.13868C9.32102 19.3747 9.49588 19.3023 9.62482 19.1734C9.75375 19.0444 9.82618 18.8696 9.82618 18.6872V13.8747H12.5762V18.6872C12.5762 18.8696 12.6486 19.0444 12.7775 19.1734C12.9065 19.3023 13.0813 19.3747 13.2637 19.3747H18.7637C18.946 19.3747 19.1209 19.3023 19.2498 19.1734C19.3787 19.0444 19.4512 18.8696 19.4512 18.6872V10.4372C19.4518 10.2565 19.4165 10.0774 19.3473 9.91036C19.2781 9.74335 19.1764 9.59177 19.0481 9.46442ZM18.0762 17.9997H13.9512V13.1872C13.9512 13.0049 13.8787 12.83 13.7498 12.7011C13.6209 12.5722 13.446 12.4997 13.2637 12.4997H9.13868C8.95634 12.4997 8.78148 12.5722 8.65254 12.7011C8.52361 12.83 8.45118 13.0049 8.45118 13.1872V17.9997H4.32618V10.4372L11.2012 3.56223L18.0762 10.4372V17.9997Z" fill="#C0638C"/>
</svg>
