<svg width="390" height="211" viewBox="0 0 390 211" fill="none" xmlns="http://www.w3.org/2000/svg">
<g clip-path="url(#clip0_5_5053)">
<path d="M0 0H390V201C390 206.523 385.523 211 380 211H10C4.47715 211 0 206.523 0 201V0Z" fill="#FFF4EE"/>
<path d="M135.867 771.117L109.995 797.127L108.87 799.387L106.904 797.41L-167.227 521.791C-207.699 481.104 -230 427.002 -230 369.451C-230 311.9 -207.699 257.799 -167.227 217.112C-126.756 176.424 -72.9359 154 -15.6804 154C41.5752 154 95.3951 176.424 135.867 217.112C209.451 291.088 250 389.475 250 494.114C250 598.754 209.478 697.141 135.867 771.117ZM227.021 494.114C227.021 395.619 188.864 303.038 119.602 233.406C83.4524 197.091 35.4169 177.08 -15.6804 177.08C-66.778 177.08 -114.813 197.064 -150.962 233.405C-187.085 269.748 -206.993 318.045 -206.993 369.424C-206.993 420.804 -187.112 469.1 -150.962 505.442L108.349 766.135L119.602 754.823C188.864 685.191 227.021 592.61 227.021 494.114Z" fill="#D5B3C2" stroke="#D5B3C2" stroke-width="4"/>
</g>
<defs>
<clipPath id="clip0_5_5053">
<path d="M0 0H390V201C390 206.523 385.523 211 380 211H10C4.47715 211 0 206.523 0 201V0Z" fill="white"/>
</clipPath>
</defs>
</svg>
