<svg width="178" height="54" viewBox="0 0 178 54" fill="none" xmlns="http://www.w3.org/2000/svg">
<path d="M34.8264 18.1986C34.8264 21.2615 34.7278 23.1345 34.5341 23.8212C34.3403 24.5079 34.1329 25.1741 33.9154 25.8268C33.6978 26.4761 33.4055 26.986 33.0383 27.3531C32.6712 27.7203 32.2327 28.101 31.7262 28.4919C30.788 29.2126 29.3636 29.6545 27.4566 29.8143H9.59978C7.04346 29.6715 4.83388 28.7469 2.96763 27.0404C2.0702 26.2313 1.35294 25.2081 0.812441 23.9742C0.271943 22.7402 0 21.4587 0 20.1295C0 18.8004 0.200555 17.6242 0.59828 16.5976H3.22939C2.75008 17.8111 2.51212 19.0519 2.51212 20.3232C2.51212 22.679 3.07982 24.6846 4.2152 26.3469C5.35058 28.0092 7.13524 28.8387 9.56578 28.8387H27.4464C28.2996 28.8251 29.0747 28.6007 29.7682 28.1656C31.0123 27.3871 31.7806 26.4081 32.0695 25.2285C32.3585 24.0524 32.5046 22.713 32.5046 21.2071V12.3892C32.5046 11.5801 32.1511 11.1756 31.444 11.1756H30.771C30.5092 11.1756 30.38 11.0906 30.38 10.9172C30.38 10.8322 30.4072 10.7745 30.465 10.7439L36.142 10.6997C36.4445 10.6997 36.5941 10.7643 36.5873 10.8934C36.5805 11.0226 36.4173 11.0872 36.1012 11.0872H35.819C35.4723 11.1008 35.2275 11.2028 35.0814 11.3897C34.9352 11.5767 34.8638 11.954 34.8638 12.5183L34.8196 17.7397V18.1953L34.8264 18.1986ZM13.6552 4.63523C14.0291 4.2613 14.4813 4.07092 15.0082 4.07092C15.5351 4.07092 15.9838 4.25449 16.3509 4.62162C16.718 4.98875 16.905 5.44088 16.905 5.97458C16.905 6.50827 16.7214 6.96038 16.3509 7.32751C15.9838 7.69464 15.5351 7.87821 15.0082 7.87821C14.4813 7.87821 14.0291 7.69464 13.6552 7.32751C13.2779 6.96038 13.0909 6.51166 13.0909 5.98476C13.0909 5.45786 13.2779 5.00575 13.6552 4.63183V4.63523ZM18.3259 4.62162C18.6931 4.25449 19.1418 4.07092 19.6687 4.07092C20.1956 4.07092 20.6477 4.2579 21.0216 4.63523C21.3955 5.01256 21.5859 5.46126 21.5859 5.98817C21.5859 6.51507 21.3989 6.96378 21.0216 7.33092C20.6443 7.69805 20.1956 7.88161 19.6687 7.88161C19.1418 7.88161 18.6931 7.69805 18.3259 7.33092C17.9588 6.96378 17.7718 6.51168 17.7718 5.97798C17.7718 5.44428 17.9554 4.99215 18.3259 4.62502V4.62162Z" fill="#1C443B"/>
<path d="M39.463 29.8142C39.2013 29.8142 39.0721 29.7292 39.0721 29.5525C39.0721 29.4675 39.259 29.4165 39.6364 29.3995C40.0103 29.3859 40.2924 29.2397 40.4828 28.9644C40.6698 28.689 40.7786 28.2063 40.8091 27.5129L40.7888 2.09586C40.7582 1.18484 40.357 0.71574 39.5752 0.688546C39.242 0.688546 39.0755 0.640936 39.0755 0.542355C39.0755 0.351991 39.2046 0.253418 39.4664 0.253418H44.8612C45.1195 0.253418 45.2521 0.351991 45.2521 0.542355C45.2521 0.640936 45.1365 0.688546 44.9054 0.688546C44.4567 0.688546 44.0623 0.763326 43.7258 0.916297C43.3859 1.06927 43.1955 1.57577 43.1513 2.4426C43.1071 3.30944 43.0935 6.87196 43.1071 13.1268C43.1207 19.3816 43.1275 23.437 43.1275 25.2931C43.1275 27.1491 43.1955 28.2539 43.3349 28.6075C43.4708 28.961 43.6578 29.1785 43.889 29.2567C44.1201 29.3349 44.4057 29.3825 44.7456 29.3961C45.0855 29.4097 45.2555 29.4607 45.2555 29.5491C45.2555 29.7224 45.1263 29.8108 44.8646 29.8108H39.4698L39.463 29.8142Z" fill="#1C443B"/>
<path d="M50.5246 28.8386C51.66 28.8386 52.6798 28.6075 53.5908 28.1452C54.5018 27.6523 55.2225 27.0166 55.7596 26.2347C56.827 24.6574 57.3641 22.6688 57.3641 20.2689C57.3641 17.8689 56.6366 15.8225 55.1851 14.1296C53.7336 12.4367 51.8809 11.5903 49.6272 11.5903C48.9031 11.5903 48.196 11.6855 47.5026 11.8724V10.941C48.2402 10.7813 49.0561 10.7031 49.9501 10.7031C51.9591 10.7031 53.7268 11.128 55.2599 11.9846C56.7896 12.8379 57.942 13.9597 58.717 15.3466C59.4887 16.7369 59.8762 18.3516 59.8762 20.1941C59.8762 22.0365 59.3799 23.726 58.3907 25.2523C57.4015 26.782 56.1437 27.9242 54.6208 28.6789C53.0979 29.4369 51.4594 29.8143 49.7121 29.8143C48.9473 29.8143 48.2096 29.7429 47.5026 29.6035V28.2777C48.383 28.6551 49.3926 28.842 50.5246 28.842V28.8386Z" fill="#1C443B"/>
<path d="M63.8636 18.576V3.1599C63.8636 1.91914 63.7344 1.18148 63.4726 0.95032C63.4148 0.906129 63.1769 0.83815 62.7588 0.746367C62.3406 0.651185 62.1299 0.532212 62.1299 0.389439C62.1299 0.246666 62.2591 0.171875 62.5208 0.171875H67.9156C68.1909 0.171875 68.3269 0.253453 68.3269 0.420021C68.3269 0.58659 68.2555 0.668189 68.1093 0.668189C67.3717 0.668189 66.8754 0.773563 66.6136 0.980924C66.3519 1.19168 66.2227 1.5554 66.2227 2.07551L66.1785 21.2173C66.1785 23.845 66.5966 25.7418 67.4363 26.9112C68.2725 28.0806 69.5371 28.7231 71.23 28.8387V29.8143C68.9048 29.6375 67.2051 28.9712 66.1377 27.812C65.3423 26.9588 64.8392 26.1871 64.6216 25.4903C64.2443 24.2325 64.0267 23.1345 63.9621 22.1929C63.8976 21.2547 63.8636 20.0479 63.8636 18.5726V18.576Z" fill="#1C443B"/>
<path d="M79.9087 11.1348C79.0079 11.1348 78.5557 11.6685 78.5557 12.7393C78.5557 12.9432 78.5489 14.6021 78.5353 17.7227C78.5217 20.8433 78.5353 22.679 78.5795 23.2263C78.7529 25.5073 79.5619 27.1049 81.0067 28.016C81.8157 28.5361 82.6758 28.8114 83.5868 28.8386V29.8142C80.5682 29.5831 78.5013 28.4341 77.3863 26.3673C76.3156 28.4341 74.2657 29.5831 71.2335 29.8142V28.8386C74.5139 28.6789 76.1898 26.1157 76.2612 21.1459V12.9976C76.2612 12.3755 76.1728 11.9098 75.996 11.6005C75.8193 11.2911 75.4555 11.1348 74.9014 11.1348C74.3473 11.1348 74.072 11.0634 74.072 10.9172C74.072 10.771 74.2114 10.6996 74.4867 10.6996H80.3336C80.609 10.6996 80.7483 10.771 80.7483 10.9172C80.7483 11.0634 80.4696 11.1348 79.9121 11.1348H79.9087ZM73.7592 32.0986C74.1298 31.7315 74.5853 31.5479 75.1224 31.5479C75.6595 31.5479 76.1116 31.7315 76.4719 32.0986C76.8323 32.4657 77.0158 32.9179 77.0158 33.4516C77.0158 33.9853 76.8357 34.4374 76.4719 34.8045C76.1116 35.1716 75.6595 35.3586 75.1224 35.3586C74.5853 35.3586 74.1298 35.175 73.7592 34.8045C73.3887 34.434 73.2017 33.9853 73.2017 33.4516C73.2017 32.9179 73.3853 32.4657 73.7592 32.0986ZM78.362 32.0986C78.7223 31.7315 79.1744 31.5479 79.7115 31.5479C80.2486 31.5479 80.7041 31.7315 81.0747 32.0986C81.4452 32.4657 81.6322 32.9179 81.6322 33.4516C81.6322 33.9853 81.4452 34.4374 81.0747 34.8045C80.7041 35.1716 80.2486 35.3586 79.7115 35.3586C79.1744 35.3586 78.7223 35.175 78.362 34.8045C78.0017 34.434 77.8181 33.9853 77.8181 33.4516C77.8181 32.9179 77.9983 32.4657 78.362 32.0986Z" fill="#1C443B"/>
<path d="M85.0348 22.1011C85.0348 19.9799 85.8166 18.168 87.3871 16.6621C88.9542 15.1596 90.8511 14.4049 93.0742 14.4049C93.7099 14.4049 95.0833 14.4185 97.1909 14.4491C103.113 14.5375 107.188 14.3709 109.412 13.9528C111.635 13.5347 113.219 12.5081 114.157 10.8764C114.086 11.094 113.953 11.3625 113.766 11.6889C113.579 12.0152 113.399 12.3347 113.226 12.6543C113.052 12.9432 112.892 13.188 112.75 13.3919C112.604 13.5959 112.417 13.8406 112.185 14.1296C111.288 15.3126 109.989 16.1182 108.286 16.5431C106.308 17.0428 103.123 17.1754 98.7308 16.9442C96.579 16.8287 95.1377 16.7743 94.4068 16.7811C93.6759 16.7879 93.1014 16.7981 92.6833 16.8151C92.2516 16.8287 91.7587 16.8729 91.2114 16.9442C90.6607 17.0292 90.2154 17.1312 89.8687 17.2468C88.9168 17.5799 88.2132 18.0932 87.7679 18.7867C87.3191 19.4802 87.0948 20.5612 87.0948 22.0263C87.0948 23.4914 87.5469 24.9089 88.4477 26.2755C89.352 27.642 90.5825 28.4953 92.1428 28.842H114.81V29.8176H83.6274V28.842H88.9814C87.7815 28.2063 86.8262 27.3021 86.109 26.1327C85.3951 24.9633 85.0348 23.6206 85.0348 22.1011Z" fill="#1C443B"/>
<path d="M12.2071 52.1456C10.6604 53.2674 8.87232 53.8283 6.84291 53.8283C4.81349 53.8283 3.25318 53.247 1.98182 52.0912C0.659471 50.9083 0 49.3377 0 47.3797C0 45.4217 0.632276 43.9362 1.89684 42.7634C3.1614 41.594 4.82029 41.0059 6.8769 41.0059C8.74655 41.0059 10.402 41.4682 11.8502 42.3895L11.1975 44.65L11.0275 44.6127C10.4428 42.4813 9.13407 41.4173 7.10125 41.4173C5.39477 41.4173 4.08603 42.0325 3.175 43.2665C2.37615 44.3645 1.97843 45.7888 1.97843 47.5463C1.97843 49.1916 2.40674 50.5547 3.26678 51.6391C4.2016 52.8221 5.47296 53.4136 7.08086 53.4136C8.21284 53.4136 9.14766 53.0906 9.88532 52.4414C10.6094 51.8057 11.0819 50.9219 11.3063 49.7865L11.4762 49.7661L12.2037 52.1388L12.2071 52.1456Z" fill="#1C443B"/>
<path d="M20.8788 42.93C20.8788 42.1209 20.5252 41.6212 19.8148 41.4342V41.2847C20.5014 41.3356 21.1099 41.3594 21.647 41.3594C22.1093 41.3594 22.6668 41.339 23.3297 41.3016C23.5541 41.288 23.6289 41.2812 23.5541 41.2812V41.4308C22.8572 41.5668 22.5071 42.0665 22.5071 42.9231V49.2493C22.5071 50.7043 22.5377 51.6561 22.5989 52.1048C22.6362 52.4413 22.7994 52.6759 23.085 52.8153C23.3705 52.9513 23.9688 53.0192 24.8798 53.0192C26.5251 53.0192 27.8339 52.8255 28.8061 52.4379C29.7647 52.0504 30.5499 51.4283 31.1618 50.5683L31.291 50.5887L30.3188 53.468H20.7666C20.4063 53.468 20.0255 53.4748 19.6278 53.4849V53.3354C20.3009 53.2096 20.7054 52.6385 20.8414 51.6153C20.8652 51.4419 20.8788 50.6567 20.8788 49.2596V42.9231V42.93Z" fill="#1C443B"/>
<path d="M38.4297 53.5291V53.3796C38.9532 53.2674 39.3034 52.9818 39.4869 52.5195C39.6671 52.0572 39.7589 50.9762 39.7589 49.2664V42.93C39.7589 42.1209 39.3849 41.6212 38.6371 41.4342V41.2847C38.5997 41.2847 38.6949 41.2915 38.9158 41.305L39.215 41.3221C39.7521 41.3459 40.194 41.3594 40.5407 41.3594C41.19 41.3594 41.7747 41.339 42.2982 41.3016C42.3594 41.3016 42.4274 41.2948 42.5022 41.2812H42.5191V41.4308C42.1452 41.5056 41.8665 41.6654 41.6795 41.9067C41.4925 42.1481 41.4008 42.488 41.4008 42.9265V49.3751C41.4008 50.932 41.4925 51.9552 41.6795 52.4413C41.8665 52.9275 42.22 53.2402 42.7435 53.3762V53.5257C42.4308 53.5019 42.0093 53.4816 41.4722 53.468H39.4903C39.266 53.468 38.9124 53.4849 38.4263 53.5257L38.4297 53.5291Z" fill="#1C443B"/>
<path d="M50.0179 53.4714V53.3218C50.6298 53.1722 51.0513 52.7371 51.2893 52.013C51.5272 51.3162 51.6428 49.9632 51.6428 47.9576V43.8274C51.6428 43.1305 51.5816 42.6444 51.4558 42.3691C51.2927 41.9951 50.9391 41.7028 50.3918 41.4921V41.3425C50.5414 41.3425 50.7725 41.3493 51.0819 41.3629C51.3946 41.3765 51.6224 41.3799 51.772 41.3799H52.0133C52.1867 41.3663 52.3431 41.3629 52.479 41.3629C52.6422 41.3629 52.8598 41.3561 53.1317 41.3425C56.4699 45.2415 59.3049 48.2839 61.6369 50.4629V46.3327C61.6369 44.9254 61.5995 44.0076 61.5247 43.586C61.314 42.5017 60.8278 41.7844 60.0664 41.4376V41.3085C60.0902 41.3085 60.2024 41.3153 60.4029 41.3255C61.0012 41.3629 61.4567 41.3833 61.7661 41.3833C61.8646 41.3833 62.1264 41.3697 62.5513 41.3459C62.9762 41.3221 63.3502 41.3085 63.6731 41.3085H63.7309V41.4376C63.1088 41.6756 62.6805 42.1277 62.4493 42.794C62.2182 43.4603 62.1026 44.786 62.1026 46.7644V53.8283H61.9326C60.1888 51.6493 57.4965 48.5899 53.8592 44.65L52.1017 42.743V47.4171C52.1017 49.8341 52.2207 51.3808 52.4552 52.0538C52.6932 52.7269 53.1045 53.1518 53.6892 53.3252V53.4748H50.0077L50.0179 53.4714Z" fill="#1C443B"/>
<path d="M70.9141 53.5291V53.3796C71.4376 53.2674 71.7877 52.9818 71.9713 52.5195C72.1515 52.0572 72.2432 50.9762 72.2432 49.2664V42.93C72.2432 42.1209 71.8693 41.6212 71.1215 41.4342V41.2847C71.0841 41.2847 71.1793 41.2915 71.4002 41.305L71.6994 41.3221C72.2365 41.3459 72.6784 41.3594 73.0251 41.3594C73.6744 41.3594 74.2591 41.339 74.7826 41.3016C74.8438 41.3016 74.9117 41.2948 74.9865 41.2812H75.0035V41.4308C74.6296 41.5056 74.3509 41.6654 74.1639 41.9067C73.9769 42.1481 73.8851 42.488 73.8851 42.9265V49.3751C73.8851 50.932 73.9769 51.9552 74.1639 52.4413C74.3509 52.9275 74.7044 53.2402 75.2279 53.3762V53.5257C74.9152 53.5019 74.4936 53.4816 73.9565 53.468H71.9747C71.7503 53.468 71.3968 53.4849 70.9107 53.5257L70.9141 53.5291Z" fill="#1C443B"/>
<path d="M95.4164 52.1456C93.8697 53.2674 92.0817 53.8283 90.0523 53.8283C88.0228 53.8283 86.4625 53.247 85.1912 52.0912C83.8688 50.9083 83.2094 49.3377 83.2094 47.3797C83.2094 45.4217 83.8416 43.9362 85.1062 42.7634C86.3708 41.594 88.0296 41.0059 90.0862 41.0059C91.9559 41.0059 93.6114 41.4682 95.0595 42.3895L94.4068 44.65L94.2369 44.6127C93.6522 42.4813 92.3434 41.4173 90.3106 41.4173C88.6041 41.4173 87.2954 42.0325 86.3844 43.2665C85.5855 44.3645 85.1878 45.7888 85.1878 47.5463C85.1878 49.1916 85.6161 50.5547 86.4761 51.6391C87.411 52.8221 88.6823 53.4136 90.2902 53.4136C91.4222 53.4136 92.357 53.0906 93.0947 52.4414C93.8187 51.8057 94.2913 50.9219 94.5156 49.7865L94.6856 49.7661L95.413 52.1388L95.4164 52.1456Z" fill="#1C443B"/>
<path d="M102.725 52.6317L103.49 49.9225L103.619 49.9394C103.782 51.0102 104.316 51.8703 105.227 52.5195C106.063 53.1178 107.039 53.417 108.161 53.417C109.147 53.417 110 53.1756 110.72 52.6895C111.529 52.1286 111.934 51.3808 111.934 50.4459C111.934 49.9734 111.829 49.5791 111.618 49.2698C111.407 48.957 111.077 48.6953 110.629 48.4845C110.268 48.3111 109.656 48.1616 108.796 48.0358C107.613 47.8726 106.957 47.7809 106.835 47.7571C105.689 47.5089 104.829 47.1214 104.255 46.5979C103.68 46.0744 103.395 45.4149 103.395 44.616C103.395 43.6064 103.895 42.7566 104.891 42.0665C105.887 41.3765 107.158 41.0297 108.705 41.0297C109.49 41.0297 110.265 41.1113 111.033 41.2711C111.798 41.4343 112.549 41.6824 113.287 42.0189L112.597 44.2421L112.427 44.2251C112.277 43.3413 111.876 42.6546 111.22 42.1685C110.567 41.6824 109.721 41.4411 108.688 41.4411C107.804 41.4411 107.019 41.6518 106.332 42.0767C105.56 42.5764 105.173 43.2427 105.173 44.0756C105.173 44.4733 105.271 44.82 105.472 45.1124C105.672 45.4047 105.965 45.6461 106.349 45.833C106.849 46.071 107.77 46.2817 109.116 46.4687C109.527 46.5299 109.962 46.5979 110.425 46.6727C111.57 46.8732 112.417 47.2132 112.967 47.6993C113.515 48.1854 113.79 48.8381 113.79 49.6607C113.79 51.0204 113.168 52.0844 111.92 52.8561C110.873 53.5156 109.629 53.8453 108.181 53.8453C106.05 53.8453 104.231 53.4408 102.725 52.6317Z" fill="#1C443B"/>
<g clip-path="url(#clip0_657_3501)">
<path d="M151.563 38.0261L135.687 22.1508C133.365 19.8289 132.086 16.7419 132.086 13.4574C132.086 10.1729 133.365 7.08598 135.687 4.7641C138.009 2.44221 141.096 1.1629 144.381 1.1629C147.665 1.1629 150.752 2.44221 153.074 4.7641C157.315 9.00338 159.649 14.6411 159.649 20.6379C159.649 26.6346 157.313 32.2724 153.074 36.5117L151.563 38.023V38.0261ZM144.381 2.26505C141.391 2.26505 138.58 3.42991 136.465 5.54328C134.35 7.65822 133.187 10.4693 133.187 13.459C133.187 16.4488 134.351 19.2598 136.465 21.3747L151.563 36.4725L152.296 35.7388C156.329 31.7064 158.55 26.3446 158.55 20.641C158.55 14.9374 156.329 9.57562 152.296 5.54328C150.181 3.42835 147.37 2.26505 144.381 2.26505Z" fill="#1C443B"/>
<path d="M151.563 38.0261L150.051 36.5148C145.81 32.2755 143.476 26.6378 143.476 20.641C143.476 14.6442 145.812 9.00649 150.051 4.76721C152.373 2.44533 155.46 1.16602 158.745 1.16602C162.029 1.16602 165.116 2.44533 167.438 4.76721C169.76 7.08909 171.039 10.1761 171.039 13.4606C171.039 16.7451 169.76 19.832 167.438 22.1539L151.564 38.0293L151.563 38.0261ZM158.745 2.26503C155.755 2.26503 152.944 3.42989 150.829 5.54326C146.796 9.57559 144.575 14.9374 144.575 20.641C144.575 26.3446 146.796 31.7064 150.829 35.7387L151.563 36.4724L166.66 21.3747C168.775 19.2598 169.938 16.4487 169.938 13.459C169.938 10.4692 168.774 7.65819 166.66 5.54326C164.545 3.42832 161.734 2.26503 158.745 2.26503Z" fill="#1C443B"/>
<path d="M153.577 52.8526L153.248 51.7097C153.22 51.6125 150.539 41.9142 157.84 35.8547C159.278 34.6617 160.649 34.2807 161.977 33.9123C163.984 33.3557 165.878 32.8289 167.994 29.3657L168.56 28.4407L168.973 29.4441C169.012 29.5397 169.913 31.813 168.056 34.4296C166.673 36.3784 164.701 37.283 163.116 38.0104C162.699 38.2017 162.302 38.3836 161.943 38.5701C162.401 38.636 163.169 38.6407 164.142 38.4541C165.431 38.208 168.631 37.3002 170.514 34.2148C173.312 29.6275 173.642 26.1282 173.883 23.5743C174.077 21.5064 174.231 19.8743 175.62 18.7628L176.297 18.2203L176.498 19.0654C176.636 19.6439 179.778 33.3322 171.682 41.0472C167.999 44.5559 164.627 45.8023 161.651 46.9029C158.599 48.0317 156.189 48.9222 154.236 51.8633L153.577 52.8542V52.8526ZM168.125 31.1451C166.083 33.9107 164.15 34.4484 162.272 34.9689C161.001 35.3217 159.8 35.6556 158.542 36.6982C153.245 41.0943 153.64 47.6068 154.065 50.2391C156.079 47.7856 158.506 46.8888 161.267 45.8666C164.142 44.8036 167.402 43.598 170.92 40.2461C177.282 34.1835 176.197 23.8048 175.636 20.4184C175.208 21.2085 175.108 22.2699 174.976 23.6731C174.725 26.3336 174.382 29.9787 171.451 34.7839C168.866 39.0232 163.674 40.036 161.596 39.6221C160.769 39.4559 160.541 39.0703 160.496 38.7771C160.433 38.3648 160.681 38.0026 161.233 37.7016C161.672 37.4601 162.15 37.2407 162.656 37.0086C164.197 36.3016 165.945 35.4989 167.159 33.79C167.877 32.7788 168.095 31.8459 168.125 31.1436V31.1451Z" fill="#1C443B"/>
<path d="M149.548 52.8527L148.889 51.8618C146.936 48.9207 144.526 48.0286 141.474 46.9014C138.498 45.8008 135.126 44.5544 131.443 41.0457C123.347 33.3307 126.489 19.6424 126.625 19.0638L126.826 18.2188L127.503 18.7613C128.891 19.8728 129.044 21.5049 129.24 23.5728C129.48 26.1267 129.811 29.6244 132.61 34.2133C134.491 37.2987 137.691 38.2065 138.979 38.4526C139.955 38.6392 140.721 38.6345 141.181 38.5686C140.822 38.382 140.425 38.1986 140.008 38.0089C138.423 37.2815 136.451 36.3769 135.068 34.4281C133.21 31.8115 134.111 29.5382 134.151 29.4426L134.563 28.4392L135.129 29.3642C137.245 32.8258 139.139 33.3526 141.146 33.9107C142.472 34.2792 143.846 34.6601 145.283 35.8532C152.585 41.9143 149.904 51.611 149.876 51.7082L149.546 52.8511L149.548 52.8527ZM127.486 20.4215C126.926 23.8111 125.846 34.1929 132.202 40.2493C135.72 43.6012 138.979 44.8068 141.855 45.8698C144.616 46.8904 147.043 47.7887 149.057 50.2423C149.482 47.61 149.877 41.0974 144.58 36.7014C143.322 35.6588 142.121 35.3249 140.85 34.9721C138.973 34.4501 137.039 33.9139 134.997 31.1467C135.027 31.8491 135.245 32.7819 135.963 33.7931C137.175 35.502 138.923 36.3032 140.464 37.0118C140.971 37.2438 141.449 37.4633 141.888 37.7048C142.44 38.0073 142.687 38.3695 142.625 38.7803C142.579 39.0734 142.352 39.4591 141.524 39.6253C139.447 40.0408 134.254 39.0264 131.669 34.7871C128.739 29.9834 128.395 26.3384 128.145 23.6778C128.013 22.2747 127.912 21.2133 127.484 20.4231L127.486 20.4215Z" fill="#1C443B"/>
</g>
<defs>
<clipPath id="clip0_657_3501">
<rect width="54.1025" height="51.6913" fill="white" transform="translate(123.308 1.1629)"/>
</clipPath>
</defs>
</svg>
