<svg width="36" height="37" viewBox="0 0 36 37" fill="none" xmlns="http://www.w3.org/2000/svg">
<g clip-path="url(#clip0_155_1332)">
<path d="M28.0727 14.0626C26.0357 13.996 23.4731 11.9966 20.2532 13.3294V7.66487C24.9844 2.79975 28.7298 11.3304 34.5122 10.464C34.118 11.2638 33.5267 12.366 30.8326 11.6998L32.0154 13.2022C30.8326 13.6021 29.7156 12.9302 28.5328 12.2636C28.1385 12.9302 28.8613 13.5298 28.8613 13.9963C28.664 13.996 28.3355 14.0626 28.0727 14.0626Z" fill="#1976D2"/>
<path d="M7.13874 13.9293C7.13874 13.4628 7.86151 12.8629 7.46724 12.1966C6.28445 12.9297 5.16741 13.6016 3.98461 13.1352L5.16741 11.6327C2.47331 12.2993 1.88205 11.1967 1.48779 10.397C7.2045 11.2633 10.9499 2.73303 15.7468 7.59786V13.2627C12.1327 11.7301 9.30734 14.6624 7.13874 13.9293Z" fill="#1976D2"/>
<path d="M18.018 6.0535C19.6465 6.0535 20.9667 4.69838 20.9667 3.02675C20.9667 1.35512 19.6465 0 18.018 0C16.3894 0 15.0693 1.35512 15.0693 3.02675C15.0693 4.69838 16.3894 6.0535 18.018 6.0535Z" fill="#1976D2"/>
<path d="M18.018 36.7022C17.6982 36.7022 17.4386 36.437 17.4386 36.1102V5.85393C17.4386 5.52717 17.6982 5.26196 18.018 5.26196C18.3378 5.26196 18.5974 5.52717 18.5974 5.85393V36.1102C18.5974 36.437 18.3381 36.7022 18.018 36.7022Z" fill="#1976D2"/>
<path d="M23.1229 27.467C22.6684 27.467 22.3905 26.9324 22.6408 26.5474C23.0516 25.9154 23.4896 24.9786 23.2422 24.1025C22.8711 22.7889 21.0267 22.1981 19.9247 21.845L19.6652 21.7613C18.3004 21.3146 17.1426 21.3877 16.0223 21.4576C14.6115 21.5461 13.2796 21.6295 11.9603 20.5895C11.3297 20.0925 10.268 19.0216 10.2393 17.4351C10.2068 15.6619 11.5035 14.4859 11.9015 14.1674C12.1535 13.9659 12.5177 14.0118 12.715 14.269C12.9122 14.5265 12.8676 14.8985 12.6156 15.1001C12.4082 15.2659 11.3749 16.1562 11.3977 17.4132C11.4174 18.5054 12.2022 19.2847 12.6683 19.6521C13.6431 20.4207 14.6617 20.3565 15.9516 20.2757C17.1217 20.2023 18.4473 20.1191 20.0192 20.6336L20.2721 20.715C21.5962 21.1391 23.8123 21.8492 24.3561 23.7737C24.6495 24.8117 24.3903 25.9974 23.6064 27.2021C23.4945 27.3743 23.3106 27.467 23.1229 27.467Z" fill="#1976D2"/>
<path d="M21.4247 31.8718C20.9699 31.8718 20.6921 31.3373 20.9426 30.9522C21.2126 30.5372 21.5017 29.9263 21.3453 29.3722C21.1089 28.5352 19.8621 28.1359 19.1173 27.8973L18.9334 27.8381C18.0009 27.5327 17.1996 27.583 16.4252 27.6318C15.4426 27.694 14.4264 27.7573 13.4444 26.9833C12.9753 26.6136 12.1851 25.8154 12.1636 24.6228C12.1393 23.2924 13.1051 22.4145 13.4015 22.1771C13.6535 21.9755 14.0174 22.0211 14.2149 22.278C14.4122 22.5355 14.3682 22.9073 14.1161 23.1092C13.9809 23.2175 13.3073 23.7979 13.3221 24.6012C13.3349 25.2992 13.8476 25.8062 14.1524 26.0462C14.7894 26.5485 15.4458 26.5074 16.3543 26.4503C17.1947 26.3976 18.1472 26.3381 19.2868 26.7107L19.4638 26.7678C20.4311 27.0777 22.0495 27.596 22.4586 29.0443C22.6799 29.8275 22.4896 30.7142 21.9079 31.6081C21.7961 31.7792 21.6121 31.8718 21.4247 31.8718Z" fill="#1976D2"/>
<path d="M20.0629 35.9032C19.6083 35.9032 19.3305 35.3686 19.5808 34.9835C19.7092 34.7861 19.9116 34.4081 19.8239 34.0968C19.6955 33.6421 18.9284 33.3965 18.4699 33.2497L18.3462 33.2097C17.7607 33.0179 17.2459 33.0505 16.7485 33.0815C16.0588 33.125 15.3459 33.1694 14.635 32.6091C14.0484 32.1459 13.719 31.5338 13.7074 30.8853C13.6897 29.9086 14.3899 29.2707 14.6051 29.0985C14.8572 28.8969 15.221 28.9419 15.4186 29.1991C15.6159 29.4563 15.5718 29.8284 15.3201 30.0302C15.2427 30.0921 14.858 30.423 14.8659 30.8631C14.8728 31.2444 15.1677 31.5332 15.3427 31.6715C15.6926 31.9473 16.0414 31.9399 16.6776 31.8994C17.2254 31.8653 17.9067 31.8224 18.6996 32.0817L18.8166 32.1196C19.4525 32.3232 20.6362 32.7027 20.9369 33.7679C21.1002 34.3466 20.9652 34.9933 20.5455 35.6383C20.4342 35.8105 20.2503 35.9032 20.0629 35.9032Z" fill="#1976D2"/>
<path d="M23.4389 20.5174C22.8083 20.5174 22.6487 19.5886 23.2411 19.369C24.1516 19.0313 24.7492 18.2466 24.764 17.3705C24.7779 16.5391 24.248 15.7562 23.4143 15.3761C23.122 15.243 22.9911 14.8928 23.1211 14.5942C23.2518 14.2958 23.5945 14.1614 23.8865 14.2946C25.1452 14.8685 25.9444 16.0836 25.9224 17.3903C25.8993 18.7616 25.0021 19.9749 23.6365 20.4816C23.5716 20.5059 23.5047 20.5174 23.4389 20.5174Z" fill="#1976D2"/>
<path d="M16.133 36.2391C15.7972 36.2391 15.4679 36.1192 15.2071 35.8981C14.9064 35.6433 14.7222 35.2754 14.7013 34.8888C14.6614 34.1352 15.2422 33.4613 15.996 33.3864C16.3161 33.3562 16.5976 33.593 16.6286 33.9183C16.6593 34.2439 16.4264 34.533 16.1081 34.5647C15.7541 34.5999 15.8242 35.1001 16.1692 35.0525C16.5125 35.0048 16.8262 35.289 16.8245 35.6424C16.8227 36.0414 16.485 36.2391 16.133 36.2391Z" fill="#1976D2"/>
</g>
<defs>
<clipPath id="clip0_155_1332">
<rect width="35.9213" height="36.7022" fill="white" transform="translate(0.0393257)"/>
</clipPath>
</defs>
</svg>
