<svg width="234" height="244" viewBox="0 0 234 244" fill="none" xmlns="http://www.w3.org/2000/svg">
<path fill-rule="evenodd" clip-rule="evenodd" d="M117 222.617C169.605 222.617 212.251 179.875 212.251 127.15C212.251 74.4256 169.605 31.6839 117 31.6839C64.3946 31.6839 21.7495 74.4256 21.7495 127.15C21.7495 179.875 64.3946 222.617 117 222.617Z" stroke="#3AD29F" stroke-width="0.305962" stroke-dasharray="1.84 1.84"/>
<path fill-rule="evenodd" clip-rule="evenodd" d="M117 242.867C180.764 242.867 232.455 191.059 232.455 127.15C232.455 63.2416 180.764 11.4335 117 11.4335C53.2359 11.4335 1.54486 63.2416 1.54486 127.15C1.54486 191.059 53.2359 242.867 117 242.867Z" stroke="#3AD29F" stroke-width="0.305962" stroke-dasharray="1.84 1.84"/>
<path d="M194.272 164.016C194.275 150.543 184.048 139.282 170.665 138.02C157.282 136.759 145.14 145.912 142.637 159.149L62.5918 156.973L63.4705 170.756C63.4705 170.756 52.0565 197.152 112.045 204.185V230.865H181.395V186.506C189.364 181.83 194.264 173.271 194.272 164.016Z" fill="url(#paint0_linear_137_913)"/>
<path d="M66.219 171.335C66.219 171.335 55.2893 196.612 112.738 203.356V228.917H179.153V161.226L65.3659 158.133L66.219 171.335Z" fill="#FFCBB4"/>
<path d="M99.4123 65.8493C95.8072 71.551 88.2846 73.2642 82.5751 69.684L46.9155 46.1324C41.2267 42.5192 39.5173 34.9795 43.0894 29.2571C46.694 23.5632 54.207 21.8508 59.9138 25.4223L95.5734 48.9739C101.267 52.583 102.982 60.1235 99.4123 65.8493Z" fill="url(#paint1_linear_137_913)"/>
<path d="M97.4368 64.5635C94.0858 69.8633 87.0934 71.456 81.7862 68.1283L48.6281 46.2192C43.3403 42.8606 41.7512 35.8524 45.0715 30.5332C48.4225 25.2333 55.4148 23.6407 60.722 26.9684L93.8737 48.8646C99.1716 52.2216 100.765 59.2399 97.4368 64.5635Z" fill="#FFCBB4"/>
<path d="M166.546 189.875C180.321 189.875 191.488 178.683 191.488 164.877C191.488 151.071 180.321 139.879 166.546 139.879C152.771 139.879 141.605 151.071 141.605 164.877C141.605 178.683 152.771 189.875 166.546 189.875Z" fill="#FFCBB4"/>
<path d="M162.056 1.52588e-05H66.5108C64.3411 1.52588e-05 62.5822 1.76293 62.5822 3.9376V183.125C62.5822 185.3 64.3411 187.063 66.5108 187.063H162.056C164.226 187.063 165.985 185.3 165.985 183.125V3.9376C165.985 1.76293 164.226 1.52588e-05 162.056 1.52588e-05Z" fill="url(#paint2_linear_137_913)"/>
<path d="M160.209 2.52971H68.3517C65.9357 2.52971 63.9772 4.49266 63.9772 6.91409V180.155C63.9772 182.576 65.9357 184.539 68.3517 184.539H160.209C162.625 184.539 164.584 182.576 164.584 180.155V6.91409C164.584 4.49266 162.625 2.52971 160.209 2.52971Z" fill="white"/>
<path d="M139.555 7.09409C138.954 11.0825 135.54 14.0349 131.515 14.0467H96.7697C92.7464 14.0333 89.3339 11.0813 88.7327 7.09409H70.324C69.3105 7.09409 68.3381 7.4962 67.6211 8.21424C66.9041 8.93227 66.5012 9.9065 66.5012 10.9224V176.14C66.5012 177.156 66.9024 178.131 67.6188 178.849C68.3352 179.568 69.3072 179.972 70.3208 179.972H158.24C159.254 179.972 160.226 179.57 160.943 178.852C161.66 178.134 162.063 177.159 162.063 176.143V10.9256C162.063 9.90972 161.662 8.93515 160.945 8.21651C160.229 7.49787 159.257 7.09409 158.243 7.09409H139.555Z" fill="#CBF7ED"/>
<path d="M124.992 9.27021H103.854C103.5 9.27021 103.213 9.55804 103.213 9.91308V10.032C103.213 10.3871 103.5 10.6749 103.854 10.6749H124.992C125.346 10.6749 125.633 10.3871 125.633 10.032V9.91308C125.633 9.55804 125.346 9.27021 124.992 9.27021Z" fill="#DBDBDB"/>
<path d="M130.396 10.8799C130.973 10.8799 131.441 10.4111 131.441 9.83273C131.441 9.25437 130.973 8.78552 130.396 8.78552C129.819 8.78552 129.351 9.25437 129.351 9.83273C129.351 10.4111 129.819 10.8799 130.396 10.8799Z" fill="#DBDBDB"/>
<path d="M182.668 169.287C175.43 170.965 170.462 166.234 168.788 158.982L152.156 97.0831C150.501 89.8034 155.021 82.5504 162.274 80.8474C169.538 79.1888 176.774 83.7193 178.473 90.9887L192.046 154.485C193.72 161.74 189.904 167.609 182.668 169.287Z" fill="url(#paint3_linear_137_913)"/>
<path d="M176.607 92.504C175.196 86.3827 169.101 82.5669 162.994 83.9813C156.886 85.3956 153.079 91.5044 154.49 97.6257L169.784 163.968C171.195 170.089 177.29 173.905 183.398 172.49C189.505 171.076 193.312 164.967 191.901 158.846L176.607 92.504Z" fill="#FFCBB4"/>
<path d="M191.382 220.553H96.4522V242.732H191.382V220.553Z" fill="url(#paint4_linear_137_913)"/>
<path d="M188.816 223.124H99.0179V240.482H188.816V223.124Z" fill="#C0638C"/>
<path d="M85.5705 132.251C82.0092 137.885 74.5766 139.579 68.9354 136.041L45.0201 120.532C39.399 116.962 37.7095 109.513 41.239 103.859C44.8003 98.2251 52.2329 96.5318 57.8741 100.069L81.7894 115.579C87.4106 119.148 89.1 126.597 85.5705 132.251Z" fill="url(#paint5_linear_137_913)"/>
<path d="M79.5669 165.08C75.9739 170.765 68.4736 172.474 62.781 168.905L47.9675 158.079C42.2947 154.478 40.5895 146.96 44.1511 141.255C47.7441 135.569 55.2444 133.86 60.937 137.43L75.7505 148.259C81.4213 151.86 83.1263 159.375 79.5669 165.08Z" fill="url(#paint6_linear_137_913)"/>
<g opacity="0.5">
<path d="M114.28 122.444C130.211 122.444 143.125 109.501 143.125 93.5345C143.125 77.568 130.211 64.6246 114.28 64.6246C98.35 64.6246 85.4359 77.568 85.4359 93.5345C85.4359 109.501 98.35 122.444 114.28 122.444Z" fill="url(#paint7_linear_137_913)"/>
</g>
<path d="M114.28 120.744C129.274 120.744 141.428 108.562 141.428 93.5345C141.428 78.5071 129.274 66.325 114.28 66.325C99.287 66.325 87.1324 78.5071 87.1324 93.5345C87.1324 108.562 99.287 120.744 114.28 120.744Z" fill="#FFF4EE"/>
<path d="M102.498 89.9023L112.677 99.256L127.099 77.9995L132.192 82.2521L112.677 107.761L98.2546 91.6059L102.498 89.9023Z" fill="#FF9257"/>
<path d="M78.3707 164.273C75.0196 169.573 68.0273 171.165 62.7201 167.838L48.9039 157.757C43.6161 154.399 42.0271 147.391 45.3473 142.071C48.6983 136.771 55.6906 135.179 60.9979 138.507L74.8108 148.606C80.088 151.963 81.6772 158.957 78.3707 164.273Z" fill="#FFCBB4"/>
<path d="M84.2557 131.4C80.9046 136.699 73.9123 138.292 68.6051 134.964L46.1042 120.371C40.8163 117.013 39.2273 110.004 42.5475 104.685C45.8985 99.3853 52.8908 97.7926 58.1981 101.12L80.699 115.714C85.9869 119.072 87.5759 126.08 84.2557 131.4Z" fill="#FFCBB4"/>
<path d="M91.7538 99.5775C88.175 105.236 80.7088 106.936 75.0417 103.383L44.7347 83.6054C39.0889 80.0184 37.3925 72.5353 40.9375 66.8554C44.5164 61.1967 51.9825 59.4965 57.6496 63.0496L87.9566 82.8275C93.6024 86.4145 95.2988 93.8975 91.7538 99.5775Z" fill="url(#paint8_linear_137_913)"/>
<path d="M90.1439 98.5489C86.7928 103.849 79.8005 105.441 74.4933 102.114L46.1073 83.5893C40.8195 80.2307 39.2305 73.2225 42.5507 67.9032C45.9017 62.6034 52.894 61.0108 58.2013 64.3385L86.584 82.8628C91.873 86.2204 93.4635 93.2288 90.1439 98.5489Z" fill="#FFCBB4"/>
<defs>
<linearGradient id="paint0_linear_137_913" x1="128.436" y1="230.881" x2="128.436" y2="137.909" gradientUnits="userSpaceOnUse">
<stop stop-color="#808080" stop-opacity="0.25"/>
<stop offset="0.54" stop-color="#808080" stop-opacity="0.12"/>
<stop offset="1" stop-color="#808080" stop-opacity="0.1"/>
</linearGradient>
<linearGradient id="paint1_linear_137_913" x1="71.2477" y1="71.558" x2="71.2477" y2="23.5548" gradientUnits="userSpaceOnUse">
<stop stop-color="#808080" stop-opacity="0.25"/>
<stop offset="0.54" stop-color="#808080" stop-opacity="0.12"/>
<stop offset="1" stop-color="#808080" stop-opacity="0.1"/>
</linearGradient>
<linearGradient id="paint2_linear_137_913" x1="114.284" y1="187.059" x2="114.284" y2="-0.00319588" gradientUnits="userSpaceOnUse">
<stop stop-color="#808080" stop-opacity="0.25"/>
<stop offset="0.54" stop-color="#808080" stop-opacity="0.12"/>
<stop offset="1" stop-color="#808080" stop-opacity="0.1"/>
</linearGradient>
<linearGradient id="paint3_linear_137_913" x1="172.123" y1="169.621" x2="172.123" y2="80.5003" gradientUnits="userSpaceOnUse">
<stop stop-color="#808080" stop-opacity="0.25"/>
<stop offset="0.54" stop-color="#808080" stop-opacity="0.12"/>
<stop offset="1" stop-color="#808080" stop-opacity="0.1"/>
</linearGradient>
<linearGradient id="paint4_linear_137_913" x1="143.923" y1="242.726" x2="143.923" y2="220.546" gradientUnits="userSpaceOnUse">
<stop stop-color="#808080" stop-opacity="0.25"/>
<stop offset="0.54" stop-color="#808080" stop-opacity="0.12"/>
<stop offset="1" stop-color="#808080" stop-opacity="0.1"/>
</linearGradient>
<linearGradient id="paint5_linear_137_913" x1="63.4" y1="137.889" x2="63.4" y2="98.2242" gradientUnits="userSpaceOnUse">
<stop stop-color="#808080" stop-opacity="0.25"/>
<stop offset="0.54" stop-color="#808080" stop-opacity="0.12"/>
<stop offset="1" stop-color="#808080" stop-opacity="0.1"/>
</linearGradient>
<linearGradient id="paint6_linear_137_913" x1="61.8606" y1="170.769" x2="61.8606" y2="135.562" gradientUnits="userSpaceOnUse">
<stop stop-color="#808080" stop-opacity="0.25"/>
<stop offset="0.54" stop-color="#808080" stop-opacity="0.12"/>
<stop offset="1" stop-color="#808080" stop-opacity="0.1"/>
</linearGradient>
<linearGradient id="paint7_linear_137_913" x1="114.28" y1="122.444" x2="114.28" y2="64.6214" gradientUnits="userSpaceOnUse">
<stop stop-color="#808080" stop-opacity="0.25"/>
<stop offset="0.54" stop-color="#808080" stop-opacity="0.12"/>
<stop offset="1" stop-color="#808080" stop-opacity="0.1"/>
</linearGradient>
<linearGradient id="paint8_linear_137_913" x1="66.3441" y1="105.251" x2="66.3441" y2="61.2045" gradientUnits="userSpaceOnUse">
<stop stop-color="#808080" stop-opacity="0.25"/>
<stop offset="0.54" stop-color="#808080" stop-opacity="0.12"/>
<stop offset="1" stop-color="#808080" stop-opacity="0.1"/>
</linearGradient>
</defs>
</svg>
