<svg width="38" height="37" viewBox="0 0 38 37" fill="none" xmlns="http://www.w3.org/2000/svg">
<g clip-path="url(#clip0_155_1313)">
<path d="M19.0104 15.9849C17.9908 15.9849 17.0951 15.7051 16.3623 15.237V17.8223C17.7204 19.4988 20.2777 19.4988 21.6358 17.8223V15.1672C20.889 15.6825 19.9846 15.9849 19.0104 15.9849Z" fill="#F0A479"/>
<path d="M18.5778 15.9673C17.7363 15.8999 16.9892 15.6378 16.3623 15.2371V17.8224C16.9436 18.5401 17.745 18.9495 18.5778 19.0528V15.9673Z" fill="#E5966E"/>
<path d="M28.6115 20.3022L23.4265 18.2942C23.2375 18.8889 22.8625 19.4157 22.3375 19.7786C20.339 21.1604 17.659 21.1604 15.6605 19.7786C15.1358 19.4157 14.7606 18.8892 14.5715 18.2947L9.39377 20.3022C9.39377 20.3022 6.81371 21.3629 6.81371 24.3042V30.6446H10.2537C10.7286 30.6446 11.1133 31.0296 11.1133 31.5045V36.7022H26.892V31.5045C26.892 31.0296 27.2767 30.6449 27.7516 30.6449H31.1913C31.1913 28.2457 31.1913 25.7087 31.1913 24.3042C31.1916 21.3629 28.6115 20.3022 28.6115 20.3022Z" fill="#00C3FF"/>
<path d="M10.746 19.7725L9.40302 20.293C9.40302 20.293 6.82295 21.3537 6.82295 24.295V30.6357H9.03844C9.03844 28.2365 9.03844 24.6445 9.03844 23.2399C9.03844 21.4464 9.99721 20.3532 10.746 19.7725Z" fill="#00AAF0"/>
<path d="M21.6358 17.6006C20.2777 19.2773 17.7203 19.2773 16.3622 17.6006L14.5326 18.3099C14.706 18.9584 15.0971 19.5366 15.6605 19.9264C17.659 21.3083 20.339 21.3083 22.3375 19.9264C22.9012 19.5366 23.2924 18.9581 23.4657 18.3093L21.6358 17.6006Z" fill="#00AAF0"/>
<path d="M24.4917 24.8369C23.6836 24.8378 23.3534 25.4888 23.3288 25.5176C23.2352 25.6246 23.1109 25.6467 22.9846 25.5151C22.5506 24.7515 21.507 24.6062 20.8826 25.2315C20.6308 25.4838 20.4922 25.8186 20.4925 26.1743C20.4942 27.6654 21.8091 28.8428 23.1008 29.4524C23.1202 29.4617 23.1409 29.4661 23.1619 29.4661C23.1829 29.4661 23.2036 29.4617 23.2232 29.4524C23.4285 29.355 23.9641 29.0797 24.4998 28.6294C25.3799 27.8899 25.8257 27.0619 25.8248 26.1687C25.824 25.4345 25.2262 24.8369 24.4917 24.8369Z" fill="#D665D3"/>
<path d="M22.7083 26.1741C22.708 25.9058 22.7867 25.6499 22.9331 25.4321C22.4728 24.7418 21.4837 24.6295 20.8826 25.2313C20.6308 25.4836 20.4922 25.8185 20.4925 26.1741C20.4942 27.6652 21.8091 28.8426 23.1008 29.4522C23.1202 29.4615 23.1412 29.466 23.1619 29.466C23.1829 29.466 23.2039 29.4615 23.2232 29.4522C23.3982 29.3691 23.8126 29.1568 24.2626 28.8177C23.3951 28.1636 22.7091 27.2508 22.7083 26.1741Z" fill="#C64AC6"/>
<path d="M11.2612 36.7022V31.3567C11.2612 30.8821 10.8762 30.4971 10.4015 30.4971H6.81371V35.8426C6.81371 36.3172 7.19873 36.7022 7.67335 36.7022H11.3525C11.3222 36.7022 11.2914 36.7022 11.2612 36.7022Z" fill="#F0A479"/>
<path d="M9.03535 35.8426C9.03535 34.9342 9.03535 32.1987 9.03535 30.4971H6.81371V35.8426C6.81371 36.3172 7.19873 36.7022 7.67335 36.7022H9.89528C9.42037 36.7022 9.03535 36.3172 9.03535 35.8426Z" fill="#E5966E"/>
<path d="M31.1916 30.4055V30.4971H27.6041C27.1292 30.4971 26.7444 30.8821 26.7444 31.3567V36.7022C26.7142 36.7022 26.6834 36.7022 26.6528 36.7022H30.3317C30.8066 36.7022 31.1916 36.3172 31.1916 35.8426C31.1916 34.918 31.1916 32.1047 31.1916 30.4055Z" fill="#F0A479"/>
<path d="M14.3716 8.32207V8.02246C14.3716 7.7724 14.585 7.57499 14.8325 7.59375C17.2723 7.76904 19.6077 7.14125 21.4849 5.91506C21.6602 5.80053 21.8923 5.82881 22.0348 5.98198C23.6399 7.70716 23.4825 7.49295 23.4825 7.71808V8.07174V8.08378V8.31675C24.0994 8.27671 24.83 8.8709 25.2374 9.24837V6.31044C25.2374 2.82508 22.412 0 18.9269 0C15.4416 0 12.6165 2.82508 12.6165 6.31044V8.92971C13.0455 8.53797 13.8021 8.30359 14.3716 8.32207Z" fill="#707487"/>
<path d="M23.5562 8.31976V11.7953C23.5562 11.8393 23.5542 11.8827 23.5528 11.9264C24.7048 12.0028 25.7347 11.1544 25.7347 10.1231C25.7347 9.09009 24.7045 8.24528 23.5562 8.31976Z" fill="#F0A479"/>
<path d="M25.0332 8.77252C24.6367 8.46226 24.1103 8.28389 23.5562 8.31973V11.7956C23.5562 11.8393 23.5542 11.8827 23.5528 11.9263C24.1089 11.9633 24.6362 11.7844 25.0332 11.4736V8.77252Z" fill="#E5966E"/>
<path d="M14.2977 11.5709V8.10065C13.2729 8.06705 12.1192 8.85333 12.1192 9.89835C12.1192 10.9285 13.1474 11.7784 14.3008 11.7017C14.2997 11.6582 14.2977 11.6146 14.2977 11.5709Z" fill="#F0A479"/>
<path d="M14.2977 11.2491C13.8721 10.9159 13.5963 10.4315 13.5963 9.89835C13.5963 9.37724 13.883 8.92053 14.2977 8.59768V8.10065C13.2729 8.06705 12.1192 8.85333 12.1192 9.89835C12.1192 10.9285 13.1474 11.7784 14.3008 11.7017C14.2997 11.6582 14.2977 11.6146 14.2977 11.5709V11.2491Z" fill="#E5966E"/>
<path d="M22.0348 5.6126C21.8923 5.45943 21.6602 5.43115 21.4849 5.54567C19.6076 6.77214 17.1247 7.54723 14.685 7.37222C14.4374 7.35317 14.2238 7.55087 14.2238 7.80064V11.5708C14.2238 13.9938 16.1223 16.2067 18.9941 16.2067C21.5504 16.2067 23.6301 14.127 23.6301 11.5708V7.49654C23.6301 7.27113 23.6399 7.33777 22.0348 5.6126Z" fill="#F7B594"/>
</g>
<defs>
<clipPath id="clip0_155_1313">
<rect width="36.7022" height="36.7022" fill="white" transform="translate(0.64888)"/>
</clipPath>
</defs>
</svg>
