<svg width="23" height="22" viewBox="0 0 23 22" fill="none" xmlns="http://www.w3.org/2000/svg">
<path d="M20.5669 18.538C19.258 16.2752 17.2411 14.6527 14.8873 13.8836C16.0516 13.1905 16.9562 12.1343 17.4621 10.8773C17.9681 9.62034 18.0475 8.23202 17.688 6.92555C17.3286 5.61909 16.5502 4.46674 15.4725 3.64546C14.3947 2.82419 13.0772 2.37939 11.7222 2.37939C10.3672 2.37939 9.04964 2.82419 7.9719 3.64546C6.89415 4.46674 6.11579 5.61909 5.75635 6.92555C5.39692 8.23202 5.47627 9.62034 5.98224 10.8773C6.4882 12.1343 7.3928 13.1905 8.55711 13.8836C6.20328 14.6519 4.18633 16.2744 2.8775 18.538C2.8295 18.6162 2.79767 18.7033 2.78387 18.7941C2.77007 18.8849 2.77459 18.9775 2.79717 19.0665C2.81974 19.1554 2.85991 19.239 2.91531 19.3122C2.9707 19.3854 3.04019 19.4468 3.11969 19.4927C3.19919 19.5387 3.28708 19.5682 3.37818 19.5796C3.46927 19.591 3.56173 19.584 3.6501 19.5591C3.73846 19.5342 3.82094 19.4919 3.89267 19.4346C3.9644 19.3773 4.02392 19.3062 4.06773 19.2255C5.6868 16.4274 8.54852 14.7567 11.7222 14.7567C14.8959 14.7567 17.7576 16.4274 19.3766 19.2255C19.4205 19.3062 19.48 19.3773 19.5517 19.4346C19.6234 19.4919 19.7059 19.5342 19.7943 19.5591C19.8826 19.584 19.9751 19.591 20.0662 19.5796C20.1573 19.5682 20.2452 19.5387 20.3247 19.4927C20.4042 19.4468 20.4737 19.3854 20.5291 19.3122C20.5845 19.239 20.6246 19.1554 20.6472 19.0665C20.6698 18.9775 20.6743 18.8849 20.6605 18.7941C20.6467 18.7033 20.6149 18.6162 20.5669 18.538ZM6.90969 8.56923C6.90969 7.61741 7.19194 6.68696 7.72074 5.89555C8.24954 5.10414 9.00115 4.48731 9.88052 4.12306C10.7599 3.75882 11.7275 3.66351 12.6611 3.8492C13.5946 4.03489 14.4521 4.49324 15.1251 5.16628C15.7982 5.83932 16.2565 6.69683 16.4422 7.63036C16.6279 8.56389 16.5326 9.53153 16.1684 10.4109C15.8041 11.2903 15.1873 12.0419 14.3959 12.5707C13.6045 13.0995 12.674 13.3817 11.7222 13.3817C10.4463 13.3804 9.22297 12.8729 8.32074 11.9707C7.41852 11.0685 6.91105 9.84517 6.90969 8.56923Z" fill="#777777"/>
</svg>
