<svg width="14" height="14" viewBox="0 0 14 14" fill="none" xmlns="http://www.w3.org/2000/svg">
<path d="M8.00917 2.04749L9.03584 4.10083C9.17584 4.38666 9.54917 4.66083 9.86417 4.71333L11.725 5.02249C12.915 5.22083 13.195 6.08416 12.3375 6.93583L10.8908 8.38249C10.6458 8.62749 10.5117 9.09999 10.5875 9.43833L11.0017 11.2292C11.3283 12.6467 10.5758 13.195 9.32167 12.4542L7.57751 11.4217C7.26251 11.235 6.74334 11.235 6.42251 11.4217L4.67834 12.4542C3.43001 13.195 2.67167 12.6408 2.99834 11.2292L3.41251 9.43833C3.48834 9.09999 3.35417 8.62749 3.10917 8.38249L1.66251 6.93583C0.810841 6.08416 1.08501 5.22083 2.27501 5.02249L4.13584 4.71333C4.44501 4.66083 4.81834 4.38666 4.95834 4.10083L5.98501 2.04749C6.54501 0.933327 7.45501 0.933327 8.00917 2.04749Z" fill="#FFD33C"/>
</svg>
