<svg width="16" height="17" viewBox="0 0 16 17" fill="none" xmlns="http://www.w3.org/2000/svg">
<path d="M14 9.50003V13.5C14 13.6326 13.9473 13.7598 13.8536 13.8536C13.7598 13.9473 13.6326 14 13.5 14H2.5C2.36739 14 2.24021 13.9473 2.14645 13.8536C2.05268 13.7598 2 13.6326 2 13.5V9.50003C2 9.36742 2.05268 9.24024 2.14645 9.14647C2.24021 9.0527 2.36739 9.00003 2.5 9.00003C2.63261 9.00003 2.75979 9.0527 2.85355 9.14647C2.94732 9.24024 3 9.36742 3 9.50003V13H13V9.50003C13 9.36742 13.0527 9.24024 13.1464 9.14647C13.2402 9.0527 13.3674 9.00003 13.5 9.00003C13.6326 9.00003 13.7598 9.0527 13.8536 9.14647C13.9473 9.24024 14 9.36742 14 9.50003ZM5.85375 5.35378L7.5 3.7069V9.50003C7.5 9.63263 7.55268 9.75981 7.64645 9.85358C7.74021 9.94735 7.86739 10 8 10C8.13261 10 8.25979 9.94735 8.35355 9.85358C8.44732 9.75981 8.5 9.63263 8.5 9.50003V3.7069L10.1462 5.35378C10.2401 5.4476 10.3673 5.5003 10.5 5.5003C10.6327 5.5003 10.7599 5.4476 10.8538 5.35378C10.9476 5.25996 11.0003 5.13271 11.0003 5.00003C11.0003 4.86734 10.9476 4.7401 10.8538 4.64628L8.35375 2.14628C8.30731 2.09979 8.25217 2.06291 8.19147 2.03775C8.13077 2.01258 8.06571 1.99963 8 1.99963C7.93429 1.99963 7.86923 2.01258 7.80853 2.03775C7.74783 2.06291 7.69269 2.09979 7.64625 2.14628L5.14625 4.64628C5.05243 4.7401 4.99972 4.86734 4.99972 5.00003C4.99972 5.13271 5.05243 5.25996 5.14625 5.35378C5.24007 5.4476 5.36732 5.5003 5.5 5.5003C5.63268 5.5003 5.75993 5.4476 5.85375 5.35378Z" fill="white"/>
</svg>
