<svg width="17" height="17" viewBox="0 0 17 17" fill="none" xmlns="http://www.w3.org/2000/svg">
<g clip-path="url(#clip0_658_5693)">
<path d="M16.5003 5.15268C16.4205 5.10994 16.3307 5.08964 16.2403 5.09393C16.15 5.09822 16.0625 5.12695 15.9871 5.17705L13.7646 6.6558V5.09018C13.7646 4.82496 13.6593 4.57061 13.4718 4.38307C13.2842 4.19554 13.0299 4.09018 12.7646 4.09018H2.76465C2.49943 4.09018 2.24508 4.19554 2.05754 4.38307C1.87001 4.57061 1.76465 4.82496 1.76465 5.09018V12.0902C1.76465 12.3554 1.87001 12.6097 2.05754 12.7973C2.24508 12.9848 2.49943 13.0902 2.76465 13.0902H12.7646C13.0299 13.0902 13.2842 12.9848 13.4718 12.7973C13.6593 12.6097 13.7646 12.3554 13.7646 12.0902V10.5277L15.9871 12.0096C16.0697 12.0632 16.1662 12.0912 16.2646 12.0902C16.3973 12.0902 16.5244 12.0375 16.6182 11.9437C16.712 11.85 16.7646 11.7228 16.7646 11.5902V5.59018C16.764 5.50022 16.7391 5.41209 16.6926 5.33509C16.6461 5.25809 16.5796 5.19507 16.5003 5.15268ZM12.7646 12.0902H2.76465V5.09018H12.7646V12.0902ZM15.7646 10.6558L13.7646 9.32268V7.85768L15.7646 6.52768V10.6558Z" fill="#818181"/>
</g>
<defs>
<clipPath id="clip0_658_5693">
<rect width="16" height="16" fill="white" transform="translate(0.764648 0.590179)"/>
</clipPath>
</defs>
</svg>
